<?xml version="1.0" encoding="UTF-8"?>
<svg enable-background="new 0 0 2635.6218 1537.5449" version="1.1" viewBox="0 0 2635.6218 1537.5449" xmlns="http://www.w3.org/2000/svg">
<style>
.cls-1{fill:#FFCD39;opacity:0.1;}</style>
 <path class="cls-1" d="m2596.2 636.64c-2.3423-7.9293-10.937-11.933-18.964-10.877-11.155 1.4667-22.389 2.714-33.623 3.0974-12.455 0.4249-24.956-0.6337-37.42-0.3171-18.321 0.4651-36.658 2.8634-54.946 0.3871-17.958-2.4315-36.079-1.3683-54.134-4.3594-15.072-2.4967-30.182-4.3416-44.919-8.5848-6.5674-1.8909-13.218-4.0659-19.958-4.6544-10.895-0.9514-21.828 0.3643-32.738 1.3708-17.263 1.5925-34.237 6.125-51.852 4.3438-13.926-1.4081-28.134 0.381-41.771-4.4207-6.3274-2.228-8.0923-4.8522-6.1716-11.195 4.9326-16.29 16.307-26.552 31.432-32.864 17.423-7.2717 35.117-13.861 51.526-23.393 5.7344-3.3311 11.826-5.9026 18.63-6.822 9.6602-1.3055 19.366-2.7427 28.805-5.1106 14.764-3.7043 29.526-7.3654 43.748-13.19 9.478-3.8818 19.443-6.6505 28.784-11.034 18.024-8.4586 36.707-13.781 56.863-14.738 18.696-0.8872 37.518 1.8549 56.093-1.9875 14.33-2.9642 29.344-4.4749 38.06-18.836 0.8792-1.4488 2.2383-2.6498 3.5208-3.8034 5.6182-5.0519 8.8928-11.234 10.109-18.749 0.8191-5.0614 2.2793-10.012 5.4172-14.344 2.5229-3.4834 1.1306-13.2-2.3599-14.435-3.7559-1.3289-8.1624-4.2524-10.869-4.0833-8.9885 0.5616-17.773-2.191-26.849-0.4866-5.5737 1.0465-10.96 3.0356-16.813 3.2108-9.9514 0.2975-20.03 0.6431-29.779 2.4576-16.956 3.1563-34.143 4.3259-51.192 6.2592-21.454 2.4327-42.832 5.6801-64.538 6.5133-24.872 0.9551-49.737 3.9052-74.58 4.8824-25.774 1.0138-49.355 7.5242-71.958 19.052-18.529 9.4498-38.176 16.274-57.243 24.458-12.055 5.1743-24.453 9.6194-36.894 13.809-21.804 7.3429-42.5 17.955-65.307 22.307-4.6533 0.8882-9.3962 1.1468-13.714 3.452-8.5779 4.5802-17.661 7.8881-26.985 10.63-20.698 6.0856-39.846 14.499-52.053 33.84-2.6014 4.1214-5.7068 8.8146-10.688 10.095-12.075 3.103-23.263 8.2849-34.553 13.309-9.062 4.033-18.078 8.1298-26.821 12.852-11.095 5.9934-21.977 12.671-33.668 17.204-17.747 6.8815-32.656 18.738-49.806 26.475-4.8204 2.1747-8.1726 6.1672-12.684 8.6758-8.0042 4.4504-15.966 9.0124-23.674 13.952-9.4999 6.0883-18.896 12.37-28.025 18.999-15.383 11.171-32.164 20.372-46.2 33.496-3.5785 3.3457-6.6134 7.7186-11.226 9.7388-9.8757 4.3251-13.762 13.038-16.216 22.341-2.3044 8.7356-4.5907 17.385-8.765 25.43-0.8571 1.6515-1.1318 3.5364-0.5389 5.0369 1.6781 4.2466 1.0288 8.4788-0.224 12.434-0.9935 3.1366 0.2301 8.4009-2.6429 8.9768-2.4867 0.4983-2.9852-4.8387-4.5194-7.4586-1.3062-2.2308-3.5165-3.9192-3.5739-6.8277-0.1284-6.5179-3.7882-11.546-7.1826-16.626-1.1742-1.7574-2.4335-3.326-3.0198-5.4567-4.0392-14.68-6.0098-29.561-5.0303-44.813 0.5411-8.4236 2.2419-17.126 0.8124-25.244-2.4176-13.73 0.1904-26.755 2.7717-39.827 2.2603-11.446 5.7635-22.65 8.769-33.947 4.5873-17.242 5.8087-34.787 8.798-52.125 3.254-18.874 14.724-38.604 21.107-56.763 17.122-48.712 26.301-99.865 43.474-148.02 3.3646-9.4652 4.9585-19.295 7.2136-28.956 2.0339-8.7126 4.0255-17.455 5.9399-26.201 1.8103-8.2712 6.8475-15.578 7.1011-24.166 0.274-9.2812 3.9688-17.463 7.0859-25.932 4.8486-13.174 9.7583-27.206 11.975-41.167 2.2456-14.143-6.5968-26.2-16.901-34.965-4.1199-3.5039-9.1528-6.1675-14.548-6.5417-6.2076-0.4306-12.314 2.216-17.223 6.0406-6.9631 5.4256-13.27 13.188-18.791 20.033-6.1317 7.6035-11.566 15.748-16.66 24.075-13.504 22.078-16.449 46.836-26.413 70.395-4.2711 10.098-6.8417 21.188-6.858 32.489-0.0027 1.8639-0.8621 3.2974-1.7224 4.7944-5.9365 10.327-11.363 20.967-15.139 32.232-10.956 32.684-23.427 64.808-35.789 96.956-11.737 30.523-26.606 59.77-37.966 90.488-5.1808 14.01-11.311 27.671-16.388 41.716-2.2909 6.3393-5.462 11.787-10.203 16.393-3.0569 2.9699-5.4901 6.3492-7.822 9.9014-3.1455 4.7917-7.2263 8.5383-13.575 7.9891-6.9379-0.6001-13.631-2.3235-19.365-6.3732-10.539-7.4434-18.116-16.728-21.544-29.819-2.9629-11.316-5.162-22.697-6.6614-34.199-1.9799-15.188-2.1643-30.659-4.871-45.693-3.8513-21.395-6.2494-42.965-8.1472-64.517-2.1678-24.62-2.6982-49.395-5.616-73.979-1.8101-15.252-3.3763-30.505-4.1887-45.866-0.4568-8.6309 0.9731-17.561-1.2585-25.843-5.532-20.53-4.8934-41.464-5.4395-62.328-0.3418-13.059 0.4403-26.162-1.231-39.165-2.5948-20.188-15.64-40.251-34.994-47.825-4.9777-1.9479-10.448-3.1059-15.681-2.0144-6.8903 1.4371-12.519 6.6436-16.102 12.702-6.6226 11.198-8.9502 24.948-9.7998 37.714-2.3027 34.596 0.1207 69.066 0.4454 103.57 0.3506 37.242 2.1796 74.472 5.1768 111.64 1.8196 22.569 2.8136 45.215 4.8069 67.782 2.6063 29.507 0.7212 59.103 1.6952 88.652 0.3508 10.649-3.8785 21.255-3.6068 32.116 0.0917 3.6736-1.2146 5.2329-4.3553 6.7249-5.8654 2.7863-11.161 6.9606-17.205 9.1422-11.468 4.1397-15.667 13.192-18.283 23.795-0.6427 2.605-0.6664 5.8734-2.2827 7.6389-6.7913 7.4169-7.2982 16.958-8.7136 25.867-1.9343 12.175-7.6696 22.874-11.443 34.305-1.2458 3.774-3.5034 7.5781-6.6802 10.477-1.4713 1.3428-20.816 21.788-24.016 32.68-4.0967 13.944-14.308 24.298-22.094 36.077-4.3654 6.6043-9.9254 12.438-10.874 21.072-0.8357 7.6074 1.4066 14.549 3.4583 21.383 3.1881 10.619 4.3763 21.034 0.8732 31.616-1.3268 4.0086-1.8746 8.1635-3.0798 12.147-5.2551 17.368-1.0679 34.946-0.7004 52.33 0.2502 11.844 2.9913 23.821 3.7787 35.795 1.2728 19.348 4.7032 38.3 9.8945 56.887 4.3768 15.671 11.752 30.137 19.955 44.187 6.2504 10.707 12.094 21.651 18.125 32.486 3.3319 5.986 7.116 11.703 9.8114 18.063 4.533 10.694 4.3185 21.644 2.1659 32.695-1.8975 9.7389 0.3792 19.699-1.3341 29.308-5.427 30.437-13.253 60.408-23.809 89.37-14.143 38.8-22.033 79.536-28.02 120.29-3.0104 20.494-5.5261 41.056-8.1064 61.607-0.8076 6.4316-6.1678 26.396-6.6565 40.102h794.5c1.3002-12.32-1.5236-28.861-1.8341-38.741-1.1698-37.229-3.1923-77.09-10.528-113.46-3.0276-13.549-5.3384-27.277-8.2849-40.867-6.2045-28.617-15.421-56.337-24.78-84.015-4.2848-12.672-8.9763-25.206-13.3-37.865-4.2896-12.561-6.272-25.7-12.231-37.95-6.5437-13.453-10.144-28.282-16.654-41.91-9.5991-20.093-18.572-40.489-28.4-60.467-6.4872-13.187-12.78-26.42-15.71-40.844-3.1863-15.685-2.1575-30.366 13.572-39.846 1.2844-0.774 2.2666-2.0421 3.4154-3.051 4.0468-3.5544 8.2478-6.941 13.513-8.4756 15.345-4.4724 30.123-10.752 45.77-14.26 12.432-2.7875 23.45-9.4521 35.714-12.878 13.394-3.741 26.489-8.5677 39.67-13.051 14.362-4.8851 29.087-8.3619 44.238-8.2512 6.9001 0.0502 13.751 0.8694 20.341-1.4114 2.6611-0.9209 5.2483-1.4583 7.8538-1.0414 11.311 1.81 22.845 2.3245 33.868 5.8518 7.405 2.3696 14.462 5.6102 21.609 8.4734 9.9319 3.9787 19.857 9.0908 30.942 9.866 0.9153 0.064 1.4607 0.4444 1.3428 1.3806-0.4968 3.938 2.9053 4.7715 5.2188 5.9942 14.669 7.7534 30.203 13.184 46.672 15.327 18.994 2.4717 38.271 1.9691 57.227 4.9437 10.427 1.6362 20.829-2.4633 31.425 0.6184 3.5732 1.0391 9.1572-0.4239 11.804-4.465 5.4292-8.2893 10.673-17.019 9.3059-27.416-0.7739-5.8858-0.863-12.52-5.0059-17.279-9.0488-10.396-22.073-13.588-34.505-17.442-9.0481-2.8048-18.344-4.9187-27.642-6.7799-8.2058-1.6424-16.048-4.6451-24.654-4.9702-8.8855-0.3356-18.02-1.4574-25.704-6.7245-6.769-4.6398-13.207-9.7609-19.815-14.638-14.946-11.033-30.549-21.219-47.027-29.611-13.819-7.0381-21.321-18.548-27.963-31.306-2.1165-4.0656-1.1519-7.6876 1.9949-11.551 5.0237-6.1677 9.9219-12.562 13.203-19.978 2.4783-5.6008 7.1416-8.13 13.386-7.5488 16.198 1.5077 32.451 0.8409 48.677 1.2315 17.735 0.427 35.105-3.2334 52.475-5.8044 23.266-3.4436 46.389-8.1373 68.968-15.088 6.9456-2.1382 14.128-3.3088 21.522-2.7724 17.027 1.2353 34.087 2.0511 51.092 3.5266 11.686 1.014 23.409 0.3537 35.039 1.1754 19.052 1.3461 38.098 0.5806 57.133 1.1426 15.827 0.4673 27.642-5.6803 35.821-19.253 4.772-7.9185 8.8376-15.665 3.9419-25.135-1.5125-2.9254 0.4121-4.9688 3.2437-6.2706 10.711-4.9241 19.688-11.474 26.842-21.46 6.6049-9.219 6.1073-18.09 3.3214-27.523zm-879.93 773.36c-0.7148 5.8572-3.0387 9.7267-6.9575 13.372-0.3101 0.2885-0.1158 1.1062-0.1788 1.6754-0.4811 4.3478-4.2216 13.972-5.1362 17.497-0.6472 2.4945-2.2764 13.471-3.6456 14.939-3.9603 4.2469-13.705-0.9314-18.602-2.5043-35.198-11.306-70.136-23.427-104.77-36.348-3.194-11.083-4.4517-17.79-4.4517-29.044-0.5594-28.189 6.3973-55.578 10.596-83.273 1.8057-11.91 5.0386-23.44 7.5483-35.153 3.2693-15.258 4.8678-30.866 7.7356-46.221 1.1411-6.1107 0.6052-12.828 5.9791-17.957 1.5923-1.5198 0.7959-5.7678 0.7338-8.7582-0.3002-14.441 4.578-27.873 8.3654-41.443 2.3047-8.2571 3.9407-16.437 3.4261-24.936-0.2242-3.7037 0.6858-6.7502 2.797-9.6331 9.0568-12.367 17.14-25.331 23.797-39.153 1.7889-3.7147 4.4271-6.4623 7.6893-9.0127 3.3451-2.6151 5.3756-1.6729 7.8049 0.9309 5.2615 5.6392 8.3535 12.3 9.3987 19.861 2.4906 18.019 4.8525 36.057 7.2443 54.09 0.4999 3.7679 3.1899 7.1404 2.1521 11.225-1.8212 6.7026-1.7786 13.266-0.158 20.145 1.2925 5.4874 4.3524 10.109 5.792 15.433 2.3224 8.5873 2.0597 17.421 2.8566 26.163 0.8389 9.2015 3.869 18.002 4.7285 27.339 1.0283 11.171 2.6664 22.375 4.9347 33.49 3.7031 18.144 7.59 36.216 12.627 54.025 5.5283 19.545 10.191 39.223 10.842 59.643 0.156 4.882-2.6126 9.2503-3.1446 13.609z"/>
 <path class="cls-1" d="m331.14 1498.5c-0.0189-0.0922-0.0445-0.1936-0.0612-0.2831-1.2736-6.8058-3.5486-13.507-4.4691-20.368-1.5851-11.816-2.953-23.66-4.1031-35.526-2.5087-25.883-6.002-53.294-3.6941-79.259 1.3225-12.08 3.986-24.017 5.2198-36.102 1.3794-13.511 3.6674-26.852 5.8449-40.227 0.9872-6.0649 2.3511-12.142 2.5629-18.247 1.0581-30.503 2.898-60.98 1.8214-91.548-1.3303-37.769-2.0397-75.56-3.0395-113.34-0.0583-2.2018 0.4978-3.8782 2.079-5.6565 5.3399-6.0059 10.739-12.021 13.201-19.994 0.7463-2.4165 2.5276-4.3069 4.6647-5.7311 20.906-13.931 40.675-29.364 59.618-45.825 12.734-11.066 24.692-23.035 37.586-33.902 11.439-9.6418 17.603-22.098 21.477-35.932 3.4638-12.368 7.7079-24.447 13.063-36.055 4.3615-9.455 7.6787-19.682 15.059-27.411 9.3407-9.7828 19.562-18.71 28.164-29.224 3.4408-4.2057 8.4048-6.2385 13.575-6.9077 5.7498-0.7443 11.425-2.3492 16.583-4.2846 22.181-8.3233 43.851-17.965 65.383-27.871 9.7448-4.4833 19.183-9.7517 29.71-12.238 26.026-6.1471 50.975-15.435 75.623-25.614 14.514-5.9935 28.813-12.671 44.03-16.642 22.767-5.9402 45.709-11.209 68.58-16.751 9.0875-2.2019 10.88-0.9512 11.23 8.4904 0.4664 12.583-3.1085 24.657-5.1362 36.911-2.431 14.692-5.3224 29.35-7.4031 44.052-1.7562 12.409-3.7728 24.885-4.5013 37.463-0.3995 6.8992-1.8591 13.905-1.0944 20.665 1.1752 10.389-0.7752 20.39-3.1048 30.082-2.7648 11.503-7.3799 22.63-11.911 33.623-6.4962 15.761-14.782 30.865-20.262 46.945-10.023 29.407-17.296 59.688-23.584 90.093-5.6648 27.388-11.582 54.72-17.694 82.003-6.343 28.316-15.825 55.887-20.57 84.596-1.7018 10.296-2.6571 20.733-4.5002 30.99-7.3566 40.94-14.563 81.906-20.678 123.05-5.7465 38.659-11.487 77.319-17.244 115.98h308.59c-0.1066-3.4446-0.6365-6.9741-0.6522-10.024-0.0576-11.159-0.6133-22.308-2.2878-33.341-2.193-14.449-2.0898-29.584-4.8549-43.994-1.6674-8.6888-4.1194-17.282-5.0609-26.097-2.1426-20.06-1.5008-40.133-3.0085-60.169-1.8586-24.698-3.9807-49.352-3.1179-74.172 0.9107-26.192 3.7631-52.267 3.6597-78.539-0.0778-19.744 1.5377-39.5 2.5978-59.24 0.5954-11.088 1.5988-22.121 1.3231-33.28-0.2977-12.04-0.9112-24.266 1.2301-36.134 5.0078-27.757 6.9627-55.942 12.178-83.641 1.8674-9.9166 3.0772-20.155 9.0788-28.889 3.9061-5.6847 9.7821-9.1353 14.657-13.712 14.111-13.248 26.478-28.135 41.24-40.893 18.266-15.786 33.574-34.726 48.765-53.597 11.224-13.943 20.043-30.029 35.218-40.569 0.7413-0.5149 1.2721-1.4528 1.6873-2.2986 3.5299-7.1918 8.9069-13.066 14.466-18.548 7.8525-7.7424 16.287-14.776 25.254-21.44 13.43-9.9805 25.031-22.354 39.769-30.903 15.361-8.9108 29.837-19.402 46.773-25.383 2.2924-0.8096 3.8162-2.4449 5.5024-4.0338 5.3718-5.0603 8.2886-11.936 12.976-17.408 3.1296-3.6536 4.2808-6.9747 2.9893-11.481-1.5323-5.3457-3.2661-10.691-4.131-16.16-2.4578-15.54-6.3357-30.735-10.843-45.756-3.4241-11.411-6.0261-12.6-17.811-12.988-18.435-0.6085-36.373 2.2891-54.05 6.9955-8.5299 2.2711-17.762 3.3405-23.856 11.172-1.3954 1.7929-3.9751 2.1136-6.2787 2.6031-5.8813 1.2497-11.838 0.7829-17.749 1.1691-21.649 1.4144-43.065 4.5553-63.99 10.502-3.7126 1.0552-5.7305-0.2239-8.0018-3.4691-6.6617-9.5176-11.935-19.968-19.605-28.817-2.9812-3.4399-7.5254-4.853-10.331-8.0249-12.208-13.801-27.632-23.459-42.546-33.741-4.3568-3.0037-5.7866-5.6324-2.9562-10.306 1.27-2.0971 2.2941-4.5012 2.7519-6.8959 0.7422-3.8832 2.9076-5.6864 6.5093-7.1623 11.079-4.5396 23.945-6.5851 31.312-17.158 7.2013-10.336 16.814-12.744 28.337-12.162 7.9113 0.3997 16.346-1.8896 22.788 4.9145 5.8561 6.1856 13.249 8.0635 21.41 8.3487 4.6024 0.1609 9.1842 0.8615 13.78 1.2654 10.917 0.9595 11.874 1.758 13.177 12.668 2.3693 19.843 9.9036 37.266 23.794 51.804 1.8521 1.9385 3.3082 3.9689 3.722 6.9164 1.4922 10.623 1.6257 10.647 12.328 11.202 2.4817 0.1285 5.002-0.3807 7.4735-0.1923 7.2131 0.5502 11.558-5.8121 17.811-7.2587 11.091-2.5661 21.382-7.4576 32.208-10.64 14.559-4.2796 22.278-13.859 26.556-27.967 3.1235-10.303 5.371-20.808 8.4863-31.097 3.8352-12.666 6.5588-25.769 12.08-37.777 3.2478-7.0638 5.1174-13.782 4.099-21.384-0.6445-4.8117-1.6748-9.5904-4.877-13.321-5.0358-5.8668-9.3302-12.224-12.978-18.97-9.9414-18.385-17.056-38.118-26.734-56.654-2.0532-3.9323-5.2512-8.3091-5.7521-11.81-1.1913-8.3278-4.0203-15.966-6.5698-23.742-6.8766-20.975-13.675-42.01-26.001-60.667-2.7279-4.1289-6.2217-6.7702-10.988-8.6576-8.3833-3.3194-16.315-0.4708-24.415 0.3471-1.9633 0.1982-3.8578 0.6683-5.4564-0.7667-4.4229-3.9696-9.0157-7.7868-13.107-12.079-4.5815-4.8068-7.8103-11.436-13.168-14.868-14.269-9.1398-30.019-8.4945-45.739-3.6598-9.8202 3.0204-17.91 9.2695-26.734 14.199-12.481 6.9731-24.662 14.554-37.542 20.804-7.546 3.6619-13.254 10.135-21.098 13.298-5.3333 2.1512-10.672 4.3678-15.381 7.7442-14.498 10.397-30.115 18.947-46.125 26.617-16.694 7.9983-31.459 19.018-47.065 28.67-18.72 11.579-37.478 23.091-56.555 34.048-12.11 6.9558-24.66 13.234-35.214 22.46-6.6407 5.8054-12.556 12.623-13.561 22.02-1.1475 10.728-1.0833 21.528 0.926 32.126 1.9603 10.339 0.813 20.098-2.7816 29.886-10.104 27.512-15.652 56.131-20.016 85.005-0.5405 3.5759-0.8026 7.3551-0.274 10.903 2.4354 16.351 3.0742 32.823 3.7864 49.292 0.2391 5.5305-1.6597 7.2549-7.272 6.9536-3.8417-0.2061-7.6525-0.1704-11.505 0.0813-18.983 1.2402-37.692 4.4735-56.262 8.2776-11.47 2.3496-23.045 3.8881-34.568 5.7163-12.738 2.0208-24.84 6.6155-37.458 8.6706-20.043 3.2646-40.191 5.7717-59.932 10.774-25.487 6.4581-50.55 13.998-73.793 26.639-2.7348 1.4872-5.6066 2.5352-8.8242 1.82-18.75-4.1675-37.692-3.6987-56.666-2.2968-5.2321 0.3866-10.914-0.576-13.51-4.5951-2.7781-4.3004-6.4068-8.1128-8.5674-12.758-3.6561-7.8611-6.4678-16.62-11.019-23.446-5.6015-8.4008-10.447-17.298-15.491-25.901-9.6297-16.425-17.563-33.866-25.805-51.075-5.609-11.71-9.7093-24.053-13.911-36.343-9.2465-27.047-14.879-55.024-20.584-82.904-2.8178-13.769-5.7812-27.324-10.913-40.368-2.8378-7.2127-4.9398-14.276-3.517-22.3 2.5867-14.588 3.0015-29.52 2.1407-44.157-1.4489-24.638-1.1294-49.322-3.0596-73.948-1.4095-17.984-2.604-35.903-6.8661-53.497-0.5388-2.2242-0.4877-4.5425 0.1641-6.736 2.6645-8.9681 3.1151-18.126 3.0754-27.375-0.0518-12.088-1.4554-24.138-1.7228-36.159-0.396-17.797 1.5671-35.606 4.4427-53.237 2.7566-16.901 1.3078-32.735-11.174-45.959-1.403-1.4864-2.0681-3.642-3.2705-5.3499-3.8944-5.532-6.9187-12.229-15.359-11.954-1.1264 0.0366-2.5035-0.5332-3.3499-0.0676-11.449 6.2949-24.869 10.002-32.006 22.214-3.3528 5.7371-6.3809 11.989-7.9083 18.4-3.1125 13.064-5.3239 26.309-6.4838 39.792-1.1777 13.689-0.7682 27.269 1.0552 40.691 3.4095 25.099 1.1185 49.681-3.5769 74.357-3.2955 17.319-6.4411 34.706-7.5254 52.388-0.9758 15.913 1.2975 31.768 0.3863 47.667-0.7785 13.584-1.1289 27.198-2.1843 40.759-1.457 18.72-3.6849 37.381-5.0655 56.106-2.0949 28.41 5.8625 55.855 8.8462 83.781 0.4919 4.6042-0.1413 7.4611-4.07 9.4382-11.387 5.7308-22.004 12.888-33.741 17.978-14.402 6.2452-28.274 13.15-34.604 29.112-1.1169 2.8163-2.9482 5.4042-4.7438 7.8847-3.4684 4.7914-6.3841 10.218-12.283 12.615-12.633 5.1346-24.624 11.526-36.477 18.226-4.8212 2.725-10.54 4.2079-14.734 7.6257-8.9013 7.2538-16.708 15.722-22.816 25.589-8.064 13.026-14.503 26.603-15.462 42.265-0.9327 15.221 0.2664 30.317 2.1269 45.391 2.9359 23.787 2.3595 47.384-2.455 70.965-2.4337 11.919-4.8193 24.073-0.1621 36.234 8.0786 21.095 15.481 42.414 21.974 64.076 4.5434 15.159 6.5757 30.741 9.8777 46.099 3.456 16.074 4.7007 32.362 5.537 48.556 1.2489 24.181 0.676 48.47 0.4044 72.708-0.1542 13.761-0.6416 27.557-2.8828 41.198-2.3333 14.202-4.4204 28.466-4.6614 42.853-0.1527 9.1141 1.6066 18.26 1.4599 27.375-0.2927 18.203-0.6586 36.451-2.2675 54.568-1.3355 15.037-2.6289 24.512-8.9476 38.22-5.6165 12.185-14.512 22.599-19.685 34.998-5.0635 12.137-2.814 24.652-3.4227 37.296-0.7113 14.774-3.8784 29.723-5.3681 44.471-3.1542 31.224-4.7434 62.574-7.1538 93.858-0.5846 7.5872-1.2139 15.171-1.9279 22.749-0.249 2.6431-0.9964 5.3295-1.5446 7.9491h293.02z"/>
</svg>
