<svg xmlns="http://www.w3.org/2000/svg" viewBox="0 0 25.51 12.35"><defs><style>.cls-1{fill:#010101;}</style></defs><title>college-cap</title><g id="Layer_2" data-name="Layer 2"><g id="Layer_1-2" data-name="Layer 1"><path class="cls-1" d="M19.13,5.55a.92.92,0,0,1,.1.52l0,4.16a3.39,3.39,0,0,0-1.93-1,21.55,21.55,0,0,0-9.88,0c-.57.13-1.23.37-1.41.95a35.82,35.82,0,0,1-.07-4,1.11,1.11,0,0,1,.18-.66,1.07,1.07,0,0,1,.49-.24,21.56,21.56,0,0,1,12.1,0,.94.94,0,0,1,.45.24"/><path class="cls-1" d="M19.78,5.73c0-.58-.64-.9-1.2-1.06A23.13,23.13,0,0,0,7,4.57a3.2,3.2,0,0,0-1.71.85c-.13.15-.35.12-.54.08L0,4.52,12.26.2a2.68,2.68,0,0,1,.88-.2,2.65,2.65,0,0,1,1,.23L25.51,4.41l-1.93.45a.59.59,0,0,0-.34.15.59.59,0,0,0-.13.36,11.88,11.88,0,0,0,.72,6.21c.13.34-.2.71-.56.76a1.9,1.9,0,0,1-1-.28,32,32,0,0,0,.43-7,29.34,29.34,0,0,0-2.89.65"/></g></g></svg>