<svg xmlns="http://www.w3.org/2000/svg" viewBox="0 0 354.56 390.42"><defs><style>.cls-1{fill:#4a4473;}.cls-2{fill:#25233a;}.cls-3{fill:#383366;}.cls-4{fill:#eb5b59;}.cls-5{fill:#ef7f6b;}.cls-6{fill:#d85856;}.cls-7{fill:#f18a6c;}.cls-8{fill:#f0836f;}.cls-9{fill:#f08864;}.cls-10{fill:#f08570;}.cls-11{fill:#eb5c57;}.cls-12{fill:#383463;}.cls-13{fill:#383462;}.cls-14{fill:#f0dcd0;}.cls-15{fill:#e96980;}.cls-16{fill:#373361;}.cls-17{fill:#ee866d;}.cls-18{fill:#e48264;}</style></defs><title>college-student</title><g id="Layer_2" data-name="Layer 2"><g id="man-5"><path class="cls-1" d="M51.53,34.4A8.62,8.62,0,0,1,45,30.6a16.55,16.55,0,0,1-2.62-7.33,60.38,60.38,0,0,1-.41-8.82,13.08,13.08,0,0,1,.83-5.61c1.3-2.78,4.3-4.26,7.09-5.54a35.59,35.59,0,0,1,8.41-3,12.14,12.14,0,0,1,8.66,1.31c2.4,1.52,4,4.15,6.67,5.23,1.88.78,4.23.76,5.54,2.31,1.1,1.29,1,3.2.73,4.87a46.34,46.34,0,0,1-4.94,13.88c-1.34,2.56-3,5.18-5.53,6.47-2.94,1.48-6.48.9-9.63,0S53.48,32,50.18,32.07A5.22,5.22,0,0,1,51.53,34.4Z"/><path class="cls-2" d="M.14,386.9v2.18a23.89,23.89,0,0,0,14.34-.58,3.54,3.54,0,0,0,1.58-.94,3.78,3.78,0,0,0,.66-2.17,91.52,91.52,0,0,0,.3-11.23,34.78,34.78,0,0,0-5.2,2.3c-1.15,1-1.59,2.28-2.45,3.55A17.2,17.2,0,0,1,.14,386.9Z"/><path class="cls-2" d="M78.5,388.3a7.13,7.13,0,0,0,3.42,1,24.78,24.78,0,0,0,10.43-1.23c1.09-.93.57-2.84-.58-3.69a9.5,9.5,0,0,0-4.06-1.24c-3.41-.63-4.91-6.23-8.82-4.51C75.53,380.15,75.72,386.35,78.5,388.3Z"/><path class="cls-3" d="M9,378.61s2.45-128.26,6.9-150.17S19.69,181,19.69,181l79.54,2.88S91,326,89.92,337.68s-5.36,42.87-5.36,42.87l-8.09-.32S60.79,214.84,60.1,212.31s-6.88-3.1-6.85-1S17.63,379.73,17.63,379.73Z"/><path class="cls-4" d="M19.62,182.63c10,5.89,22.18,6.57,33.8,6.85,14.41.36,29,.34,43-3a17.22,17.22,0,0,0,6.92-2.93,15.66,15.66,0,0,0,3.77-5c7-13.22,7.39-28.85,6.66-43.77-.73-14.65-2.41-29.24-4.09-43.81-.6-5.19-1.26-10.56-3.91-15.07-4.43-7.53-13.31-11-21.56-13.87-4-1.39-8-2.77-12.22-2.64-4.78.16-9.26,2.27-14,3.07s-10.41-.26-12.61-4.5c-8.21,1.32-17.61,6.68-24.81,10.84C16.16,71.27,11.88,74.49,9.48,79c-2,3.71-2.51,8-3,12.15L2,128c-1.57,12.8-3.13,25.85-.71,38.51.81,4.22,2.15,8.53,5.13,11.64S15.85,184.7,19.62,182.63Z"/><path class="cls-5" d="M96.29,192.23a5.58,5.58,0,0,0,.17,2,1.94,1.94,0,0,0,1.39,1.37c1.05.2,1.94-.76,2.52-1.66a22.3,22.3,0,0,0,2.72-5.93c.25-.86,2.77-6.2,2.51-7.05-.33-1.11-3.67,2.53-4.77,2.2C95.6,181.63,96.4,188.79,96.29,192.23Z"/><path class="cls-6" d="M93.37,168.54c-.12,4.53-.2,9.29,1.88,13.32.9,1.75,2.67,3.48,4.58,3,1.52-.4,4.41-.45,5.19-1.81,7.24-12.55,9-12.66,8.3-55-.19-11.34-1.5-22.66-1.39-34a58.14,58.14,0,0,0-.3-9.52,14.85,14.85,0,0,0-4-8.49c-3.79-3.65-11.87-3.64-12.9,2.72-.33,2,.69,4.19.8,6.2.21,3.75-.17,7.61-.27,11.36l-1.22,46Z"/><path class="cls-5" d="M10,189.18c1.24,1.53,2.77,2.8,4.09,4.26a20.36,20.36,0,0,1,4.19,7.14c.35,1,.92,2.34,2,2.27.77,0,1.29-.82,1.59-1.53,1.55-3.66.87-7.84,0-11.72-1-4.46-3.17-11.93-9-11.76C7.22,178,7.34,185.94,10,189.18Z"/><path class="cls-6" d="M21.15,171.07c-.29,2.7-.57,8.38-2.11,10.62s-6.48,1.25-8.88,0c-2.07-1.1-1.08-4.1-1.59-6.38-6.34-28.47-2.9-58.12,1.36-87,.66-4.45,2.59-17.56,9.38-17s4.93,15.11,5,19.31q.69,25.77-.82,51.55Q22.69,156.65,21.15,171.07Z"/><path class="cls-7" d="M50.87,62.66a30,30,0,0,0,22.66-1.93c.78-.4.48.43.78-.4a3.14,3.14,0,0,0-.8-2.89c-.68-.66,0,0-1.32-2.39a22.92,22.92,0,0,1-1.4-5.91,7.65,7.65,0,0,1,1.78-5.66C74,42,76.09,41.32,77.31,39.7c1.48-2,1.22-4.69.88-7.13A7.81,7.81,0,0,0,72,30.14l-1.39-9.49c-5.22-3.42-12-3.11-18.19-2.68a5.42,5.42,0,0,0-2.61.64,4,4,0,0,0-1.51,3.47c0,1.31.35,2.61.39,3.93a5.4,5.4,0,0,1-.86,3.33,3.1,3.1,0,0,1-3,1.33c-1.07-.23-2-1.15-3-1.18a2.57,2.57,0,0,0-2.24,1.57,5.43,5.43,0,0,0-.31,2.83c.42,4.06,2.69,7.65,4.42,11.35A16.25,16.25,0,0,1,45,56.63C44.17,60.18,47.94,61.73,50.87,62.66Z"/><path class="cls-8" d="M276.75,54.82C274.53,49.48,272.39,43.6,274,38A14.44,14.44,0,0,1,286.84,28a16,16,0,0,1,14.39,8.15,17.83,17.83,0,0,1,0,16.72c-1.84,3.47-4.77,6.32-6.22,10-1.52,3.8-1.3,8-1.23,12.11,0,2.17-.12,4.66-1.86,6a4.62,4.62,0,0,1-5.24-.25,10.52,10.52,0,0,1-3.25-4.47c-.72-1.62-1.55-3.16-2.3-4.74s-.45-3.17-.65-4.84C280,62.46,278.33,58.6,276.75,54.82Z"/><path class="cls-9" d="M332.24,126.22c.36,9.25-4.82,17.69-9.81,25.48-1.66,2.59-3.72,5.44-6.77,5.77s-6.16-2-9-.87c-2.21.87-3.19,3.59-2.85,5.93s1.7,4.4,3,6.36c1.65,2.46,3.82,5.2,6.78,5.12,2.5-.06,4.42-2.13,6-4,10.47-12.45,21-24.92,30.43-38.14,2.34-3.27,4.72-6.93,4.46-10.94a16.31,16.31,0,0,0-2.7-7.08,77.31,77.31,0,0,0-31.48-29.28,4.34,4.34,0,0,0-3.25-.64c-1.76.59-2,2.92-2,4.78.06,3.43-1.11,9.82.42,12.9,1.24,2.51,5.42,4.15,7.49,6.08C328,112.33,332.24,119.15,332.24,126.22Z"/><path class="cls-10" d="M233.87,374.09s-.68-50.6,2.36-64.55,13.26-47.7,11.07-53,24.54-2,24.54-2L242.43,376.39Z"/><path class="cls-10" d="M285.64,255.26l.49,119.92,8.65-.22s17.93-73.65,16.41-81.28-3.77-12.59-2.18-20.12,1.6-23.21,1.6-23.21Z"/><path class="cls-11" d="M269.67,118.15A27.14,27.14,0,0,1,264,126c-2.45,2.12-5.79,3.44-9,2.78a10,10,0,0,1-6.58-5.36,17.77,17.77,0,0,1-1.7-8.52C247,99.27,259.41,86.37,262,71c2.11-12.33-2.23-25.36,1.43-37.31A29.54,29.54,0,0,1,285,13.87c5.91-1.28,12.45-.56,17.4,2.92,7.14,5,9.59,14.38,10.65,23,2.37,19.44.34,39.46,5.32,58.4,1.43,5.46,3.46,10.94,3.06,16.57s-4.14,11.57-9.75,12.15c-5.43.56-10.2-4.08-12.11-9.19S297.77,107,297,101.65c-1.05-7-3.63-13.71-4.92-20.68s-1.13-14.66,2.86-20.51c2.25-3.31,5.68-6,6.5-9.94,1.08-5.17-2.83-9.93-6.46-13.77-.47-.51-1.08-1.06-1.76-.91-1.1.23-1,1.79-1,2.91.34,4.37-3,8-5.41,11.67-5.18,7.69-5.41,16.39-5.86,25.5-.22,4.61-1.87,10-1.44,14.57.39,4.28-1.35,8.26-2.84,12.24A120.15,120.15,0,0,1,269.67,118.15Z"/><path class="cls-9" d="M258.24,102.72S242.7,109.5,239,114.27s-.34,12.47,2.89,20,8.28,15.27,9.55,17.8,1.59,2.56,3.31,2.64c7.27.35,6.77-3.67,8.36.85s1,12.37,1,12.37-4,4.47-7.15,3.25-8-7.86-11-10.42S219.71,129,218.09,123.6c-1.83-6.08-4.52-7.6,4.93-16.08s24.12-25,30.23-29.65S258.24,102.72,258.24,102.72Z"/><path class="cls-12" d="M245.25,254.65s62.75,0,65.24.06,15.56-63.21,11.32-72S306,155.81,306.5,143.93s2.75-32.1,7.82-40.68c4.42-7.48,10.56-13.91,4.22-25.87-3.07-5.79-4.08-5.83-9-6.28-3.53-.33-9.14-1.17-15.07,1-7.34,2.69-3.76,5.71-7.35,3.15s-5.94-4.21-12.75-5.16c-10.1-1.4-16.45,2.33-20.1,7.64s-2.58,22.72-2.69,26.73,3.62,18.3,8.06,23.56,8.6,26-2.6,38.79-11.27,14.61-11.56,25.36S245.25,254.65,245.25,254.65Z"/><path class="cls-12" d="M285.16,389.15s17.15,1.64,19.34,1.19-7.78-3.37-8.73-7.31a47.54,47.54,0,0,1-.86-9.65l-8.78,1.8Z"/><path class="cls-12" d="M233.87,374.09s2.36,3.5.79,5-12.44,8.91-11,10,17.26,1.37,17.26,1.37,1.61-6.32,1.77-7.66a40.52,40.52,0,0,0-.22-6.37Z"/><path class="cls-12" d="M202,65.17a231,231,0,0,1-2.89-29.46c-.14-4.21-.22-8.63-2.33-12.27a16.32,16.32,0,0,0-9-6.81,47.88,47.88,0,0,0-11.3-2c-3.94-.37-8-.7-11.74.67-6.2,2.3-9.76,8.72-12.19,14.86a102.49,102.49,0,0,0-5,16.62c-.69,3.28-4,14.2-2,17.09,1.55,2.22,13.19-.67,16.16-.87A166.6,166.6,0,0,1,202,65.17Z"/><path class="cls-2" d="M131.43,383.21A5.16,5.16,0,0,0,132,388a7.58,7.58,0,0,0,7.75-.81,11.65,11.65,0,0,0,4.23-6.84c.34-1.47,1.37-6.52.31-7.8s-4.18-.54-5.47.28C136.05,374.54,132.41,380.29,131.43,383.21Z"/><path class="cls-2" d="M177.19,383.07a6.39,6.39,0,0,0,.56,3.73c.95,1.55,3,2,4.77,2.28a10.85,10.85,0,0,0,4,.15,3.66,3.66,0,0,0,2.87-2.49,4.33,4.33,0,0,0-1.19-3.55,27.07,27.07,0,0,1-2.54-2.93c-1.49-2.45-1.16-9.07-5.54-7.79C176.3,373.57,177.34,380.18,177.19,383.07Z"/><path class="cls-13" d="M132.93,207l79.74,1.08S198.72,259,199.45,275.77s4,31.37-3.63,52.66-10.69,45.81-10.69,45.81h-9.32s5.09-126.81-.3-132.71-3-3.51-5.39-5.9-21.63,122.71-22.74,127.49-2.24,11.7-2.24,11.7l-8,1.36Z"/><path class="cls-14" d="M214.44,209.37c2-9.86,2.07-20,2.11-30.08q.13-38.83.26-77.67c0-7.17-.06-14.76-3.83-20.85-3-4.79-7.9-8.08-13.16-10.07s-10.88-2.81-16.44-3.61c.12,3.34-4,5.38-7.31,4.75s-5.6-4.28-8.94-4.41c-9.57-.39-12.93-.39-20.25,3-3.11,1.44-3.27,6-4.25,9.28A308.84,308.84,0,0,0,132,203.06c.47,4,.52,4.44,4.45,5.35a89,89,0,0,0,10.26,1.76,142.25,142.25,0,0,0,20.54.61C183,210.29,198.68,208.25,214.44,209.37Z"/><path class="cls-15" d="M150.77,187.77c-.43,2-1,4.29-2.75,5.48-1.52,1-3.5,1-5.33.92L121,193.22l.55-35.88c0-2.19,0-4.58-1.36-6.29s-3.9-2.34-6-3.4c-4.61-2.38-7.14-7.7-7.41-12.87s1.37-10.26,3.34-15.06c4-9.9,9.49-19.14,14.92-28.35,3.81-6.47,9-16.76,17.35-17.88,9.29-1.25,9.93,7.18,9.89,14-.11,21.56,2.11,43.06,1.9,64.62A184.48,184.48,0,0,1,150.77,187.77Z"/><path class="cls-15" d="M195.21,123.86l.83,70.45c3.71-.71,7.52.05,11.3.12s7.95-.81,10.18-3.86c2-2.68,1.91-6.28,1.77-9.6l-.91-21c-.21-4.94.11-10.89,4.39-13.34,3.5-2,10.59,1.34,12.11-2.39,2.13-5.25,1.79-16.65.41-26.62-.85-6.19-4.28-11.68-7.63-16.95L216.36,82.9a23.75,23.75,0,0,0-7.93-8.25c-1.1-.64-2.77-1.92-4.69-2.87a34,34,0,0,0-6.44-2.45c-6.93-2.15-6.93-.17-5.94,4.61a157.87,157.87,0,0,1,2.49,16.6C194.94,101.61,195.08,112.75,195.21,123.86Z"/><path class="cls-16" d="M137.18,90.46l-2,42.53,64.91,1.38s.28-42.42-.6-42.71S137.18,90.46,137.18,90.46Z"/><path class="cls-17" d="M129.58,127.46a26.42,26.42,0,0,0,3.32-.69c1.07-.37,1.23-2.24,2.36-2.23,2.32,0,.67,4.6.46,6.9,1.88.89,4.39-.3,6.08.91,2.68,1.93,1,6.53,1.24,9.83a3.33,3.33,0,0,1-.5,2.49,3.4,3.4,0,0,1-2.54.81c-3.75.15-7.6.29-11.19-.84s-7.7-4.1-7.43-8.22S125.64,128.34,129.58,127.46Z"/><path class="cls-17" d="M213.05,139.69c-1.2,2.18-4.36,2.68-7.06,2.9-3.12.26-6.7.38-8.89-1.64-2-1.81-3.73-4.27-3.66-6.8.05-1.88-1.37-5.15-.55-6.85.34-.71,1.48-1.14,2.26-1.45s2.49.36,3.18.22a2.08,2.08,0,0,0,1.28-2.51c-.18-1-.66-2-.4-3,.46-1.76,3.1-2.39,4.93-1.66s3,2.33,4.07,3.85c1.77,2.5,4.59,5.3,5.17,8.27C213.79,133.13,214.1,137.81,213.05,139.69Z"/><path class="cls-18" d="M169.86,70.42a8.27,8.27,0,0,0,3.88,3.89c2.83,1.11,6.2-.61,7.73-3.25s1.55-5.88,1-8.88a5.87,5.87,0,0,1,0-3.64c.56-1.16,1.85-1.73,2.82-2.58,2-1.77,2.51-4.69,2.54-7.36a30.37,30.37,0,0,0-2.3-11.94,6.87,6.87,0,0,0-2.28-3.24,7.16,7.16,0,0,0-3.36-.92,50,50,0,0,0-6.92-.16,11,11,0,0,0-4.26.84,10.2,10.2,0,0,0-3.95,4,29.78,29.78,0,0,0-3.58,8.55,12.29,12.29,0,0,0-.22,6.28c.75,2.69,2.84,4.69,4.59,6.76a10.38,10.38,0,0,1,2.11,3,22.39,22.39,0,0,1,.36,3.58A15.5,15.5,0,0,0,169.86,70.42Z"/></g></g></svg>