<svg xmlns="http://www.w3.org/2000/svg" viewBox="0 0 30.06 14.72"><defs><style>.cls-1{fill:#FFCD39;opacity:0.1;}</style></defs><title>college-degree</title><g id="Layer_2" data-name="Layer 2"><g id="Layer_1-2" data-name="Layer 1"><path class="cls-1" d="M16.42,11.57a5.42,5.42,0,0,0,.76,3.15,10.14,10.14,0,0,1-2.95-6,9.21,9.21,0,0,1-3,4.24.65.65,0,0,1-.63.21A6.09,6.09,0,0,0,12,10.21a9.58,9.58,0,0,1-2.29.56,10.4,10.4,0,0,0,3.75-4.6A61.52,61.52,0,0,0,1.9,6.64C1,6.77.35,5.76.15,4.88A6.56,6.56,0,0,1,.51.94c.21-.48.61-1,1.12-.93Q8.88,1.09,16.17,1.84q1.8.2,3.6.33a72.25,72.25,0,0,0,8.58.11,1.55,1.55,0,0,1,1.39.93A4,4,0,0,1,30.06,5a5.28,5.28,0,0,1-.31,2A6,6,0,0,1,28.11,9,46.14,46.14,0,0,0,15.28,6.34a14.73,14.73,0,0,0,2.93,6.07,14.59,14.59,0,0,1-1.79-.84M15.34,5A55.37,55.37,0,0,1,27.92,7.81a1.14,1.14,0,0,0,1.21-.45,2.61,2.61,0,0,0,.43-1.29,8.09,8.09,0,0,0-.06-2.25,1.42,1.42,0,0,0-.26-.69,1.72,1.72,0,0,0-1.46-.4,76.84,76.84,0,0,1-12-.45c-.14.9-.27,1.8-.4,2.7M13.92,2.63a.56.56,0,0,0-.07-.46A.57.57,0,0,0,13.5,2L1.77.51c-.24,0-.53,0-.65.18A6.94,6.94,0,0,0,.42,4.2c0,.58.35,1.33.94,1.26a92.16,92.16,0,0,1,11.86-.55c.28,0,.4-.33.44-.6.08-.56.17-1.12.26-1.68M27.36,8A55.92,55.92,0,0,0,15.58,5.42a.6.6,0,0,0-.33,0,.28.28,0,0,0,0,.43A51.21,51.21,0,0,1,28.05,8.59c0-.33-.38-.51-.69-.61M1.18,6.27A70.2,70.2,0,0,1,13,5.76c.33,0,.81-.15.69-.46a92.12,92.12,0,0,0-11.86.49c-.29,0-.69.2-.6.48"/></g></g></svg>