<?xml version="1.0" encoding="UTF-8"?>
<svg viewBox="0 0 300 300" xmlns="http://www.w3.org/2000/svg">
<style>.cls-1{fill:#FFCD39;opacity:0.2;}.cls-2{stroke:#FFCD39;opacity:0.2;fill:none;}</style>
 <path class="cls-2" d="m148.75 81.564c4.835-0.49628 9.9134 1.1884 13.163 4.4195 2.2072 2.4132 3.6911 5.4515 3.6746 8.5932-0.42386 3.8333-2.5987 7.6201-6.2217 9.8169-4.2856 2.6913-10.136 3.2153-14.938 1.3218-7.0251-2.4497-11.094-10.51-7.484-16.618 2.0532-4.1908 6.8016-6.9233 11.806-7.5336z" stroke-miterlimit="10" stroke-width=".1"/>
 <path class="cls-1" d="m148.75 81.564c4.835-0.49628 9.9134 1.1884 13.163 4.4195 2.2072 2.4132 3.6911 5.4515 3.6746 8.5932-0.42386 3.8333-2.5987 7.6201-6.2217 9.8169-4.2856 2.6913-10.136 3.2153-14.938 1.3218-7.0251-2.4497-11.094-10.51-7.484-16.618 2.0532-4.1908 6.8016-6.9233 11.806-7.5336z"/>
 <path class="cls-2" d="m82.469 89.753c-1.8627-3.0636 0.36169-7.3849 4.3226-7.8106 2.9201-0.50569 5.5889 1.3395 6.7507 3.6016 7.9164 14.792 15.783 29.607 23.702 44.398 0.98856 1.7734 1.2564 3.9673-0.003967 5.6955-0.92906 0.95552 0.014542 2.0445 0.40601 2.9959 8.8984 0.012344 17.708-2.4238 25.28-6.5293 10.862-5.4021 20.298-13.443 25.671-23.522 1.3833-2.151 2.0433-4.7888 4.1652-6.4876 2.9564-1.6935 6.6746 0.33223 8.1995 2.7525 1.2683 1.6453 0.70355 3.6722 0.44766 5.4956-0.93898 5.5709-4.7041 10.474-9.5399 13.992-9.2079 7.8982-21.093 13.056-33.493 15.602-6.5596 1.3513-13.399 1.2989-19.988 0.1376 1.5037 2.8589 3.2772 5.649 4.3298 8.6685 0.52504 1.6988-2.6747 2.5491-3.5542 1.0855-2.2165-3.7521-4.0561-7.6818-6.0663-11.527-2.8718 0.17171-5.5155-1.3272-6.6726-3.6433-8.0084-14.958-15.989-29.93-23.957-44.906z" stroke-miterlimit="10" stroke-width=".1"/>
 <path class="cls-1" d="m82.469 89.753c-1.8627-3.0636 0.36169-7.3849 4.3226-7.8106 2.9201-0.50569 5.5889 1.3395 6.7507 3.6016 7.9164 14.792 15.783 29.607 23.702 44.398 0.98856 1.7734 1.2564 3.9673-0.003967 5.6955-0.92906 0.95552 0.014542 2.0445 0.40601 2.9959 8.8984 0.012344 17.708-2.4238 25.28-6.5293 10.862-5.4021 20.298-13.443 25.671-23.522 1.3833-2.151 2.0433-4.7888 4.1652-6.4876 2.9564-1.6935 6.6746 0.33223 8.1995 2.7525 1.2683 1.6453 0.70355 3.6722 0.44766 5.4956-0.93898 5.5709-4.7041 10.474-9.5399 13.992-9.2079 7.8982-21.093 13.056-33.493 15.602-6.5596 1.3513-13.399 1.2989-19.988 0.1376 1.5037 2.8589 3.2772 5.649 4.3298 8.6685 0.52504 1.6988-2.6747 2.5491-3.5542 1.0855-2.2165-3.7521-4.0561-7.6818-6.0663-11.527-2.8718 0.17171-5.5155-1.3272-6.6726-3.6433-8.0084-14.958-15.989-29.93-23.957-44.906z"/>
 <path class="cls-2" d="m177.7 147.09c2.4512-1.0326 5.1981-0.42337 7.779-0.29166 4.5977 3.1576 7.2724 7.9964 8.2993 13.002 1.1612 5.522 1.5949 11.136 2.7184 16.664 2.1947 11.707 6.916 22.859 11.385 33.991 3.8366 8.4115 7.2519 16.975 11.319 25.302-6.71e-4 0.3681-0.001984 1.1037-0.003311 1.4718-0.66786-0.33814-1.2438-0.76559-1.7272-1.2819-4.1533-4.5554-8.2392-9.1595-12.432-13.686-6.0352-6.1836-9.9591-13.662-14.336-20.792-6.2614-11.378-12.157-22.996-16.018-35.22-1.5731-4.3396-2.2998-9.0008-1.5572-13.533 0.34451-2.3873 1.9818-4.7324 4.5725-5.6279z" stroke-miterlimit="10" stroke-width=".1"/>
 <path class="cls-1" d="m177.7 147.09c2.4512-1.0326 5.1981-0.42337 7.779-0.29166 4.5977 3.1576 7.2724 7.9964 8.2993 13.002 1.1612 5.522 1.5949 11.136 2.7184 16.664 2.1947 11.707 6.916 22.859 11.385 33.991 3.8366 8.4115 7.2519 16.975 11.319 25.302-6.71e-4 0.3681-0.001984 1.1037-0.003311 1.4718-0.66786-0.33814-1.2438-0.76559-1.7272-1.2819-4.1533-4.5554-8.2392-9.1595-12.432-13.686-6.0352-6.1836-9.9591-13.662-14.336-20.792-6.2614-11.378-12.157-22.996-16.018-35.22-1.5731-4.3396-2.2998-9.0008-1.5572-13.533 0.34451-2.3873 1.9818-4.7324 4.5725-5.6279z"/>
 <path class="cls-2" d="m158.46 155.45c2.4876-0.60036 5.577-1.5935 7.7307 0.21756 2.6298 2.0998 2.3078 5.5779 1.6525 8.3804-0.7406 4.2349-3.2851 7.9641-5.8488 11.508-3.6772 4.5777-7.6434 8.9984-10.726 13.929-5.5664 8.7791-9.811 18.148-14.019 27.487-2.8778 7.0515-5.6028 14.156-8.8257 21.093-1.7444-0.51569-0.71878-2.3932-0.75845-3.5363 1.6597-9.4406 2.6642-18.979 4.9561-28.327 2.8328-12.777 6.9233-25.354 12.53-37.391 2.6721-5.5074 6.6654-11.208 13.309-13.361z" stroke-miterlimit="10" stroke-width=".1"/>
 <path class="cls-1" d="m158.46 155.45c2.4876-0.60036 5.577-1.5935 7.7307 0.21756 2.6298 2.0998 2.3078 5.5779 1.6525 8.3804-0.7406 4.2349-3.2851 7.9641-5.8488 11.508-3.6772 4.5777-7.6434 8.9984-10.726 13.929-5.5664 8.7791-9.811 18.148-14.019 27.487-2.8778 7.0515-5.6028 14.156-8.8257 21.093-1.7444-0.51569-0.71878-2.3932-0.75845-3.5363 1.6597-9.4406 2.6642-18.979 4.9561-28.327 2.8328-12.777 6.9233-25.354 12.53-37.391 2.6721-5.5074 6.6654-11.208 13.309-13.361z"/>
 <path class="cls-2" d="m87.73 178.29c0.008575-0.37987 0.024445-1.1396 0.032379-1.52 5.7608 0.002945 11.522 0.005295 17.284-0.001175 0.009277 0.37985 0.027771 1.1396 0.037048 1.52 0.8801-0.007065 1.7609-0.011765 2.6423-0.014709 0 19.798 0.003998 39.596-0.001953 59.394-1.3741-0.00235-2.7469-0.00235-4.1196 0-0.011932-19.713 0.007294-39.427-0.009918-59.14-1.7067 0.01059-3.4134 0.01059-5.1187 0-0.017181 19.713 0.001312 39.427-0.009247 59.14-1.3741-0.00235-2.7469-0.00235-4.1196 0-0.011902-19.713 0.007294-39.427-0.009918-59.14-1.7067 0.01059-3.4127 0.01059-5.1187 0-0.017212 19.713 0.001312 39.427-0.009277 59.14-1.3741-0.00235-2.7468-0.00235-4.1196 0-0.005981-19.798-0.002014-39.596-0.002014-59.394 0.88013 0.00354 1.7616 0.008835 2.643 0.015884z" stroke-miterlimit="10" stroke-width=".1"/>
 <path class="cls-1" d="m87.73 178.29c0.008575-0.37987 0.024445-1.1396 0.032379-1.52 5.7608 0.002945 11.522 0.005295 17.284-0.001175 0.009277 0.37985 0.027771 1.1396 0.037048 1.52 0.8801-0.007065 1.7609-0.011765 2.6423-0.014709 0 19.798 0.003998 39.596-0.001953 59.394-1.3741-0.00235-2.7469-0.00235-4.1196 0-0.011932-19.713 0.007294-39.427-0.009918-59.14-1.7067 0.01059-3.4134 0.01059-5.1187 0-0.017181 19.713 0.001312 39.427-0.009247 59.14-1.3741-0.00235-2.7469-0.00235-4.1196 0-0.011902-19.713 0.007294-39.427-0.009918-59.14-1.7067 0.01059-3.4127 0.01059-5.1187 0-0.017212 19.713 0.001312 39.427-0.009277 59.14-1.3741-0.00235-2.7468-0.00235-4.1196 0-0.005981-19.798-0.002014-39.596-0.002014-59.394 0.88013 0.00354 1.7616 0.008835 2.643 0.015884z"/>
</svg>
