<svg xmlns="http://www.w3.org/2000/svg" viewBox="0 0 1252.66 207.36"><defs><style>.cls-1{fill:#ff7e10;opacity:0.8;}</style></defs><title>dots</title><g id="Layer_2" data-name="Layer 2"><g id="Layer_1-2" data-name="Layer 1"><circle class="cls-1" cx="27.19" cy="27.19" r="27.19"/><circle class="cls-1" cx="27.19" cy="180.17" r="27.19"/><circle class="cls-1" cx="147.02" cy="27.19" r="27.19"/><circle class="cls-1" cx="147.02" cy="180.17" r="27.19"/><circle class="cls-1" cx="266.85" cy="27.19" r="27.19"/><circle class="cls-1" cx="266.85" cy="180.17" r="27.19"/><circle class="cls-1" cx="386.68" cy="27.19" r="27.19"/><circle class="cls-1" cx="386.68" cy="180.17" r="27.19"/><circle class="cls-1" cx="506.5" cy="27.19" r="27.19"/><circle class="cls-1" cx="506.5" cy="180.17" r="27.19"/><circle class="cls-1" cx="626.33" cy="27.19" r="27.19"/><circle class="cls-1" cx="626.33" cy="180.17" r="27.19"/><circle class="cls-1" cx="746.16" cy="27.19" r="27.19"/><circle class="cls-1" cx="746.16" cy="180.17" r="27.19"/><circle class="cls-1" cx="865.98" cy="27.19" r="27.19"/><circle class="cls-1" cx="865.98" cy="180.17" r="27.19"/><circle class="cls-1" cx="985.81" cy="27.19" r="27.19"/><circle class="cls-1" cx="985.81" cy="180.17" r="27.19"/><circle class="cls-1" cx="1105.64" cy="27.19" r="27.19"/><circle class="cls-1" cx="1105.64" cy="180.17" r="27.19"/><circle class="cls-1" cx="1225.46" cy="27.19" r="27.19"/><circle class="cls-1" cx="1225.46" cy="180.17" r="27.19"/></g></g></svg>