<?xml version='1.0' encoding='utf-8'?>
<svg xmlns="http://www.w3.org/2000/svg" version="1.1" width="600px" height="976px" viewBox="0 0 600 976"> <g id="layer1"> <g style="fill:rgb(0,0,0); fill-opacity:1.0; stroke-linejoin: miter"> <path d="M253.8794,435.84702C254.03122,435.84702,254.10553,436.1011,254.10553,436.6029C254.10553,437.15967,253.83969,437.49252,253.43881,437.49252C253.32513,437.49252,253.20059,437.46576,253.06818,437.40973C252.79156,437.31754,252.8146,437.15616,253.2526,436.5107C253.5302,436.06653,253.73828,435.84702,253.8794,435.84702 Z M255.9036,437.0409C256.13412,437.0409,256.4338,437.15616,256.59518,437.31754C256.98706,437.70944,256.94095,438.42404,256.52603,438.42404C256.34158,438.42404,256.04193,438.1013,255.83447,437.73245C255.48868,437.087,255.51172,437.0409,255.9036,437.0409 Z M212.39287,378.50345C212.35974,378.50345,212.32504,378.50613,212.28871,378.51114C212.15039,378.5342,211.48187,378.6264,210.83641,378.6956C209.84517,378.81082,209.45328,379.01828,208.66951,379.75595C207.58604,380.81638,205.99544,382.98328,205.21167,384.4817C204.40485,386.04926,204.49704,388.9308,205.71881,403.15405C205.97238,406.1278,206.27206,408.9402,206.38733,409.4012C206.5026,409.8392,207.03279,410.78436,207.53995,411.47592C209.72992,414.47272,209.70685,414.42664,209.43024,415.02597C209.26886,415.3948,208.85391,415.67142,208.2315,415.8328C206.9867,416.15555,206.52563,416.91626,206.71007,418.20718C206.87143,419.2215,206.41039,420.4663,204.88893,423.09427C204.58925,423.60144,204.33568,424.20078,204.33568,424.43127C204.31262,424.9154,203.6441,426.25244,203.32138,426.4599C203.20612,426.5521,202.72202,426.69043,202.26097,426.7596C201.79993,426.82874,200.94699,427.26672,200.32458,427.7047C199.4025,428.3963,199.24112,428.6268,199.24112,429.29535C199.24112,430.1137,199.13608,430.2868,196.64957,430.2868C196.05432,430.2868,195.32262,430.2769,194.4232,430.26352C193.71236,430.25372,193.1433,430.24704,192.685,430.24704C190.9882,430.24704,190.80942,430.33853,190.57347,430.7015C190.34294,431.0473,190.25072,432.4074,190.25072,436.23407L190.20464,441.30557L207.14804,441.3747L224.09146,441.42084L224.59863,440.7984C225.26715,439.9455,224.9444,439.80716,222.24728,439.80716C220.8872,439.80716,219.98816,439.71497,219.98816,439.57663C219.98816,439.43835,220.93332,439.34613,222.3856,439.34613C224.34505,439.34613,224.80609,439.27698,224.92136,438.9773C224.99051,438.7698,225.05966,437.11005,225.05966,435.28894L225.05966,431.9694L224.27588,431.0934L223.49213,430.24048L221.30215,430.21744C218.88167,430.17133,218.51282,430.05606,218.72029,429.4106C218.88167,428.94955,217.86736,427.81998,216.76085,427.26672C215.90791,426.8057,213.39523,426.43683,211.25136,426.43683L209.33801,426.43683L209.45328,425.67612C209.66075,424.40826,210.214,422.14914,210.39844,421.84946C210.45934,421.7581,210.51576,421.71143,210.57758,421.71143C210.65613,421.71143,210.74336,421.78683,210.85947,421.94165C211.06694,422.2183,211.55104,422.33356,212.72672,422.35657L214.34036,422.4027L214.31732,421.71112C214.29425,421.3192,214.15594,417.16983,214.01764,412.4902C213.87932,407.78757,213.60269,400.11115,213.41827,395.43152C213.23386,390.72888,213.09555,385.12717,213.07248,382.96024C213.07248,379.3197,212.96942,378.50345,212.39287,378.50345 Z M307.30142,434.62952C307.447,434.62952,307.48688,435.66223,307.54068,439.00034C307.56375,441.7436,307.70206,443.93353,307.81732,444.0488C307.95563,444.1871,308.04785,444.9709,308.04785,445.8238C308.04785,446.8381,308.32446,448.45178,308.87772,450.54953C310.3531,456.33563,310.768,465.02637,309.6615,467.23938C309.56927,467.4238,309.31573,468.00012,309.10825,468.50726C308.6011,469.729,307.1027,471.31964,306.27283,471.5271C305.92703,471.61932,305.53513,471.75763,305.39685,471.84982C305.01263,472.13797,303.90808,472.44214,303.40378,472.44214C303.30292,472.44214,303.22607,472.42996,303.1838,472.40308C303.02243,472.31085,303.29907,471.89594,303.94452,471.2735C304.52084,470.72028,305.37378,469.54462,305.83484,468.6225C306.6186,467.1241,306.68774,466.82446,306.59555,465.64877C306.38806,463.43573,306.1806,462.83636,305.2816,461.93735C304.4517,461.10748,304.05978,460.9461,301.82373,460.60034L300.78638,460.43896L300.64807,457.9032C300.57892,456.497,300.3484,454.79114,300.16397,454.09958C299.51852,451.9096,299.2188,450.24982,299.35715,449.6966C299.52994,449.04868,300.49194,447.97568,300.85907,447.97568C300.8838,447.97568,300.9058,447.98056,300.92468,447.99072C301.03995,448.08295,301.13217,448.3365,301.13217,448.56702C301.13217,448.93585,302.6075,450.4112,302.9994,450.4112C303.06854,450.4112,303.4835,450.1807,303.92148,449.88104C304.6361,449.3969,304.7283,449.23557,304.8666,447.87546C304.95883,447.0456,305.14325,445.75464,305.2816,444.99393C305.41986,444.23322,305.62735,443.0345,305.7426,442.34293C305.85788,441.65134,306.06534,440.49872,306.1806,439.80716C306.29587,439.1156,306.50333,437.8708,306.6186,437.0409C306.75693,436.21103,306.98743,435.21976,307.1488,434.85092C307.21005,434.71307,307.26,434.62952,307.30142,434.62952 Z M225.05966,442.1124L188.5218,442.13544L187.8994,442.6887C187.30003,443.19586,187.25392,443.38028,187.25392,444.9478L187.25392,446.67673L188.08382,447.06863C188.61403,447.3222,189.55916,447.4605,190.78093,447.48358L192.67123,447.52966L192.7865,462.51367L192.90176,477.49762L196.82065,477.49762L196.8898,462.60587C196.9359,448.65924,196.95895,447.69104,197.35083,447.59882C197.49234,447.5584,203.32431,447.54013,209.87216,447.54013C218.2579,447.54013,227.8178,447.5701,228.10257,447.6219C228.21783,447.6219,228.31004,454.35315,228.3331,462.55975L228.40225,477.49762L232.32115,477.49762L232.39029,462.65198C232.41336,453.96127,232.5286,447.73718,232.64386,447.64496C232.75912,447.5758,239.14462,447.52966,246.84409,447.52966C254.54352,447.52966,260.8829,447.4605,260.92902,447.3683C260.99817,447.25305,261.5053,446.97644,262.03552,446.72284C263.142,446.23877,263.32645,445.9391,263.32645,444.6712C263.32645,443.97964,263.16507,443.6569,262.45044,442.96533L261.57446,442.1124 Z M281.14563,379.06754C280.52518,379.06754,280.1174,379.09216,279.44458,379.167C279.1823,379.19507,277.89938,379.4261,277.7269,379.47504C277.67618,379.48932,277.5037,379.53827,277.34073,379.5811C275.62338,380.0541,274.06815,380.93665,272.9562,382.06827C272.34372,382.6902,271.8005,383.45697,271.42917,384.2264C270.94296,385.22845,270.6832,386.34656,270.67856,387.46585C270.67392,388.17157,270.77444,388.59528,271.04532,389.01334L271.12576,389.13892L271.02695,389.36618C270.86295,389.74127,270.61697,390.23315,270.14468,391.13174C269.38712,392.5728,269.13773,393.10184,268.9899,393.59158C268.87204,393.98325,268.8622,394.21658,268.95242,394.39166C269.0635,394.60764,269.27463,394.7332,269.77176,394.87524C269.97937,394.93414,270.06958,394.9539,270.16953,394.9539C270.18976,394.9539,270.2104,394.9531,270.23245,394.95163C270.31555,394.94693,270.38974,394.94446,270.45615,394.94446C270.7318,394.94446,270.8739,394.9869,270.96628,395.08786C271.0452,395.17303,271.0593,395.28812,271.0292,395.5597C271.01395,395.68912,271.0024,395.8371,271.00632,395.88986C271.00967,396.0156,270.97836,396.1289,270.87802,396.33722C270.7548,396.5928,270.73392,396.68262,270.76236,396.81628C270.80508,397.01144,270.93253,397.12558,271.31454,397.3139C271.39725,397.3533,271.473,397.40054,271.4824,397.41583C271.51358,397.4654,271.46915,397.577,271.32828,397.80826C271.19443,398.03174,271.15787,398.12894,271.17654,398.22375C271.192,398.30212,271.22403,398.33438,271.51273,398.56036C271.85495,398.82938,271.99667,399.00504,272.05655,399.23315C272.09604,399.39038,272.0964,399.40314,272.02048,399.9859C271.90988,400.82822,271.91757,401.15024,272.05527,401.43594C272.22525,401.7881,272.72952,402.17303,273.20035,402.31174C273.41617,402.3742,273.5629,402.40106,273.81223,402.41623L274.0076,402.4292L275.79373,402.08832L277.57742,401.74573L277.6757,401.82065C277.80484,401.92163,278.0541,402.2518,278.21323,402.53757C278.31366,402.71637,278.41946,402.92877,278.52914,403.1719L278.52637,403.1719Q278.42563,403.22168,278.3276,403.26984L278.33038,403.26984C278.3544,403.3093,278.3785,403.34763,278.40262,403.38458C279.02502,404.30667,279.02502,404.3297,278.58704,404.95212C277.25,406.88852,276.71982,409.10153,276.69678,412.67462C276.69678,415.37177,276.51233,416.1786,275.65942,417.21594C275.29056,417.67697,274.5068,419.75168,274.0227,421.4806C273.60776,422.979,273.285,425.42255,273.12366,428.46542C273.07755,429.50278,272.96228,430.49405,272.8701,430.63235C272.75482,430.79376,272.63956,431.90024,272.5704,433.09897L272.4321,435.28894L270.40347,435.21976C270.13678,435.21072,269.8922,435.20612,269.66965,435.20612C268.7573,435.20612,268.21445,435.2835,268.0291,435.4503C267.8447,435.58862,267.0609,435.75,266.27713,435.81912C266.0784,435.8283,265.90198,435.83463,265.7399,435.83463C264.67987,435.83463,264.2333,435.56372,262.17383,434.0441C261.73584,433.6983,260.90598,433.3064,260.32965,433.122C259.75336,432.96063,259.154,432.70706,259.01566,432.59183C258.91483,432.51978,258.6519,432.48376,258.33942,432.48376C258.15195,432.48376,257.94662,432.49673,257.7478,432.52267C257.19455,432.61484,256.04193,432.7301,255.14288,432.7993C253.62143,432.9376,252.72241,433.3295,252.72241,433.88272C252.72241,433.998,252.4227,434.459,252.03082,434.89703C251.66199,435.31198,251.33926,435.86523,251.33926,436.09576C251.33926,436.74414,250.98196,436.99057,249.82469,436.99057C249.54192,436.99057,249.21135,436.97586,248.82657,436.9487C247.78922,436.87952,246.10638,436.7412,245.06903,436.6721C244.00864,436.6029,243.04047,436.44156,242.90213,436.3263C242.85297,436.28415,242.79738,436.2634,242.73604,436.2634C242.59601,436.2634,242.42595,436.37146,242.23361,436.57983C241.98198,436.8629,241.72083,437.00772,241.37637,437.00772C240.9635,437.00772,240.43097,436.79968,239.65176,436.37238C238.98927,436.0029,238.68587,435.83765,238.45361,435.83765C238.26563,435.83765,238.12424,435.94592,237.87674,436.14185C237.5144,436.4265,237.27556,436.5587,237.02972,436.5587C236.83762,436.5587,236.64124,436.47797,236.37833,436.3263C236.2353,436.23093,236.1104,436.1758,235.97148,436.1758C235.64023,436.1758,235.22939,436.4892,234.30362,437.31754C233.51987,438.0552,233.35849,438.33182,233.35849,439.0695C233.35849,439.76105,233.51987,440.10684,234.1192,440.68314L234.87994,441.42084L246.70575,441.42084C248.13466,441.424,249.39575,441.42587,250.50938,441.42587C257.46246,441.42587,258.66757,441.35324,259.0848,441.07504C259.75336,440.63705,259.7764,440.24518,259.17703,439.6919C258.92346,439.46136,258.716,439.18475,258.716,439.0695C258.716,438.93207,258.79092,438.86725,258.91864,438.86725C259.19797,438.86725,259.7299,439.17712,260.28354,439.71497C261.25174,440.63705,262.12772,441.09808,263.41864,441.28253C264.456,441.42084,264.75568,441.7666,264.54822,442.5273C264.2255,443.81827,264.27158,443.8413,265.88525,443.91046C267.19922,443.95657,267.4528,444.0488,267.545,444.41763C267.61417,444.69424,267.86774,444.87866,268.1213,444.87866C268.39795,444.87866,268.65152,444.9709,268.72067,445.08615C268.88205,445.33972,267.38364,446.26178,266.85342,446.26178C266.64597,446.26178,266.0466,446.6537,265.49335,447.11475C263.3956,448.93585,262.68097,449.48914,262.49655,449.48914C262.3813,449.48914,261.96637,449.8119,261.55142,450.1807C260.8368,450.84924,260.76764,450.87225,258.34717,450.87225C256.98706,450.87225,255.55783,450.96448,255.16592,451.10278C254.77405,451.21802,252.9068,451.58688,250.9935,451.9096C244.58493,453.0161,242.74075,453.43106,241.42679,454.09958C240.41248,454.62976,239.99753,455.09082,239.35208,456.4509C238.93713,457.3269,238.86798,457.81097,238.96017,459.10193C239.12158,461.40717,239.30597,461.93735,240.41248,463.13608C240.96576,463.7354,241.42679,464.40393,241.42679,464.63446C241.42679,464.865,241.65732,465.51044,241.91089,466.08676C242.1875,466.6631,242.5333,467.70044,242.71771,468.39197C243.10959,469.89038,243.1557,470.00565,244.40054,472.61053C244.95377,473.7401,245.62228,475.1924,245.922,475.8609C246.22165,476.5064,246.61356,477.17493,246.79797,477.33627C247.00179,477.50305,248.17357,477.58044,251.211,477.58044C251.95267,477.58044,252.80559,477.57584,253.7828,477.56677L260.44492,477.49762L260.51407,475.93008C260.56018,474.73135,260.46796,474.1781,260.12216,473.50958C259.89166,473.04855,259.54587,472.12646,259.3845,471.50403C259.2462,470.85858,258.73904,469.54462,258.30103,468.57642C257.65588,467.1445,257.4726,466.4752,257.75116,466.47314L257.75372,466.47314C257.88373,466.4741,258.11227,466.61737,258.43936,466.8936C258.93445,467.3088,259.1308,467.44745,259.8562,467.44745C260.17792,467.44745,260.60364,467.42017,261.20563,467.3777C261.6421,467.3504,262.344,467.33746,263.17834,467.33746C264.45914,467.33746,266.05203,467.36795,267.47586,467.4238L271.71747,467.58514L271.64832,468.78387C271.62527,469.4524,271.71747,470.39755,271.87885,470.85858C272.2246,471.87286,272.93924,473.00244,273.23892,473.00244C273.3542,473.00244,274.1149,473.4174,274.9448,473.94757C275.96384,474.5801,276.3669,474.78412,276.8378,474.78412C276.9847,474.78412,277.13824,474.76425,277.31915,474.73135C277.80325,474.63916,279.7166,474.5239,281.60687,474.45474L284.99557,474.36252L284.99557,475.63037C284.99557,477.56677,285.11084,477.6129,289.12192,477.6129C290.98917,477.6129,292.57977,477.54376,292.64893,477.47458C292.71808,477.40543,292.64893,476.80606,292.4645,476.1606C292.08142,474.68564,292.01666,474.40448,292.62732,474.40448C292.75156,474.40448,292.90375,474.4161,293.0869,474.4317C294.03204,474.50085,294.0551,474.54694,294.42395,475.65344C294.96106,477.33884,294.91782,477.59576,296.82874,477.59576C297.29626,477.59576,297.88083,477.58038,298.61948,477.56677L301.939,477.49762L302.00815,476.41418C302.10034,475.16934,302.2156,475.05408,303.89844,474.5239C304.59,474.2934,305.71957,473.8554,306.38806,473.5557C307.05658,473.25604,307.70206,473.00244,307.84036,473.00244C308.27838,473.00244,311.27518,469.95953,311.27518,469.52155C311.27518,469.29102,311.39044,469.03745,311.50568,468.9683C311.64398,468.89917,311.7362,468.57642,311.7362,468.27673C311.7362,467.97705,311.85147,467.6543,311.96674,467.58514C312.10504,467.49295,312.19727,465.81012,312.19727,463.3205C312.19727,460.83087,312.10504,459.148,311.96674,459.05582C311.85147,458.98663,311.7362,457.94928,311.7362,456.77365C311.7362,455.62103,311.64398,454.5606,311.52872,454.44537C311.41345,454.30707,311.2521,453.38498,311.206,452.37067C311.13684,451.35635,310.97546,449.90405,310.83716,449.14334C310.56055,447.59882,310.23782,445.63937,309.84592,443.0345C309.50012,440.72925,309.59235,436.6029,310.0073,435.4042C310.44528,434.20547,310.46835,431.20868,310.07645,430.86288C309.91507,430.72458,309.47708,430.58624,309.0852,430.54013C308.43973,430.47098,308.39365,430.42487,308.43973,429.5489C308.48584,429.04175,308.67026,428.11966,308.90076,427.47418C309.56927,425.46863,309.26962,423.62445,308.23227,423.3709C308.1335,423.34396,308.01453,423.33142,307.88077,423.33142C306.98413,423.33142,305.42233,423.8957,304.82053,424.4774C304.4912,424.78732,304.1782,424.98334,304.0319,424.98334C304.0041,424.98334,303.98233,424.97626,303.9676,424.96152C303.8754,424.8693,303.82925,424.15466,303.85233,423.3709C303.89844,421.98776,303.0916,417.44644,302.51532,415.94806C302.16953,415.02597,300.99384,413.1818,300.0487,412.05222C299.63376,411.5451,299.288,411.03793,299.288,410.92267C299.288,410.2311,295.9915,406.58887,294.3548,405.48233C294.10123,405.29788,293.8246,405.06738,293.75543,404.99823C293.68628,404.92908,293.27133,404.58328,292.81027,404.23752C292.16483,403.75342,291.9343,403.38458,291.81903,402.693C291.74988,402.18585,291.38104,401.44818,291.03525,401.03323C290.65152,400.58728,290.32376,400.15067,290.0793,399.77164L290.07642,399.77164C289.81033,399.04977,289.76096,398.90982,289.63074,398.5224C289.5584,398.30737,289.47668,398.06635,289.44885,397.99045C289.30377,397.5691,289.0578,396.71124,288.93073,396.18564C288.76465,395.4835,288.77515,395.0143,288.97363,394.2918C289.11035,393.7892,289.22632,393.48578,289.63025,392.55566C290.20737,391.2317,290.2769,391.008,290.41495,390.0767C290.6464,388.52066,290.60092,387.05988,290.2831,385.69553C289.93344,384.20242,289.2395,382.8757,288.26025,381.83014C286.58112,380.0374,284.1195,379.0694,281.2226,379.06766C281.19656,379.06757,281.17093,379.06754,281.14563,379.06754 Z"/> </g> </g> </svg>