<?xml version="1.0" encoding="utf-8"?>
<!-- Generator: Adobe Illustrator 24.0.1, SVG Export Plug-In . SVG Version: 6.00 Build 0)  -->
<svg version="1.1" id="ae72d77f-f397-4021-826a-c0dbbd2dad22"
	 xmlns="http://www.w3.org/2000/svg" xmlns:xlink="http://www.w3.org/1999/xlink" x="0px" y="0px" viewBox="0 0 808.5 567"
	 style="enable-background:new 0 0 808.5 567;" xml:space="preserve">
<style type="text/css">
	.st0{fill:none;stroke:#000000;stroke-width:2;stroke-miterlimit:10;}
	.st1{fill:#FFB8B8;}
	.st2{fill:#2F2E41;}
	.st3{fill:#FFCD39;}
	.st4{fill:#3F3D56;}
	.st5{fill:#F2F2F2;}
	.st6{fill:#FFFFFF;}
</style>
<a>
	<g>
		<circle class="st0" cx="111.6" cy="244.5" r="34.8"/>
		<g>
			<path d="M122.6,248.3l1.4-9.3h-8.9v-6c0-2.5,1.2-5,5.2-5h4.1v-7.9c0,0-3.7-0.6-7.2-0.6c-7.4,0-12.2,4.5-12.2,12.5v7.1h-8.2v9.3
				h8.2v22.5h10.1v-22.5H122.6z"/>
		</g>
	</g>
</a>
<a>
	<g>
		<path d="M277.7,120.2l4.3-0.9c0,0-3.6,4-4.3,4.3l0,0c-0.1,0.9-0.1,1.7,0,2.6c-8.2,35.1-38.4,19.6-38.4,19.6
			c11,0.3,11.9-4.3,11.9-4.3c-6.4-0.9-7.7-5.1-7.7-5.1c1.2,0.6,2.7,0.3,3.4-0.9c-6.9-1.8-6-8.5-6-8.5c1.2,0.9,2.7,1.4,4.2,1.6
			c-0.8-0.9-7.2-8.7-3.3-12.7c0,0,4.8,8.5,17.3,9.3l0.9-0.2c-0.1-0.6-0.2-1.2-0.2-1.9c0-4.9,4-9,9-9l0,0c6,0,7.2,3.4,7.2,3.4
			l4.3-2.6C280.2,115.1,279.8,119.4,277.7,120.2z"/>
		<circle class="st0" cx="257.2" cy="130" r="34.8"/>
	</g>
</a>
<a>
	<g>
		<path d="M422.1,57.8c5,0,9,4,9,9v18c0,5-4,9-9,9h-18c-5,0-9-4-9-9v-18c0-5,4-9,9-9H422.1 M422.1,54.2h-18c-7,0-12.6,5.7-12.6,12.6
			v18c0,7,5.7,12.6,12.6,12.6h18c7,0,12.6-5.7,12.6-12.6v-18C434.7,59.8,429.1,54.2,422.1,54.2z"/>
		<path d="M424.8,66.8c-1.5,0-2.7-1.2-2.7-2.7c0-1.5,1.2-2.7,2.7-2.7c1.5,0,2.7,1.2,2.7,2.7C427.5,65.6,426.3,66.8,424.8,66.8
			C424.8,66.8,424.8,66.8,424.8,66.8z"/>
		<path d="M413.1,68.6c4,0,7.2,3.2,7.2,7.2s-3.2,7.2-7.2,7.2c-4,0-7.2-3.2-7.2-7.2C405.9,71.8,409.1,68.6,413.1,68.6L413.1,68.6
			 M413.1,65c-6,0-10.8,4.8-10.8,10.8c0,6,4.8,10.8,10.8,10.8c6,0,10.8-4.8,10.8-10.8c0,0,0,0,0,0C423.9,69.8,419.1,65,413.1,65
			L413.1,65z"/>
		<circle class="st0" cx="412.4" cy="75.5" r="34.8"/>
	</g>
</a>
<a>
	<g>
		<circle class="st0" cx="577.8" cy="132.2" r="34.8"/>
		<g>
			<path d="M565.4,144.6l-7.1-2.3l7.4-22.9l7.1,2.3L565.4,144.6z M570.3,117.4c-2.3-0.7-3.5-3.2-2.8-5.5c0.7-2.3,3.2-3.5,5.5-2.8
				c2.3,0.7,3.5,3.2,2.8,5.5C575,116.8,572.6,118.1,570.3,117.4z M592.1,153.2l-7.1-2.3l3.6-11.2c0.9-2.7,1.9-6.1-1.7-7.3
				c-3.7-1.2-5.2,1.5-6.2,4.5l-3.7,11.4l-7.1-2.3l7.4-22.9l6.8,2.2l-1,3.1l0.1,0c1.5-1.5,4.5-2.6,7.9-1.5c7.2,2.3,7,7.5,5,13.7
				L592.1,153.2L592.1,153.2z"/>
		</g>
	</g>
</a>
<a>
	<g>
		<circle class="st0" cx="729.5" cy="218.2" r="34.8"/>
		<g>
			<path d="M712.2,226.4c0.5-0.4,1.9-1.7,3.6-3.1c-5.1-4.1-4.1-7.1-3.4-8.4c0.4-0.7,1.3-3.1,1-4.3c-0.2-1-0.2-2.7,1.3-1.1
				c1.3,1.5,0.9,3.8,0.6,4.7c-1.4,4.3,1.8,6.3,3.3,7c1.4-0.9,2.7-1.1,3.6-1c-3.2-4.7-5.5-10.6,1.9-17c2.1-1.8,4.5-2.6,6.9-2.5
				c0.3-0.6,1.7-3,5.3-4.2c0,0,1.9,1.2,2.6,7c1.8,1.2,3.4,2.6,4.8,4.2c1.4,1.6,2.6,3.5,3.5,5.4c5.7,1.5,6.6,3.6,6.6,3.6
				c-1.7,3.4-4.3,4.4-4.9,4.6c-0.3,2.4-1.3,4.6-3.5,6.5c-7.4,6.4-12.9,3.3-17.1-0.5c0,1.2-0.6,2.8-2.4,4.4c-2.6,2.2-4.7,4-5.3,4.6"
				/>
		</g>
	</g>
</a>
<polygon class="st1" points="549.9,499.7 559.3,504.3 581.5,470.3 567.6,463.5 "/>
<path class="st2" d="M549,495.5l18.5,9.1l0,0c6.5,3.2,9.2,11,6,17.6c0,0,0,0,0,0l-0.2,0.4L543,507.7L549,495.5z"/>
<polygon class="st1" points="642.9,515.8 653.4,515.8 658.3,475.5 642.9,475.5 "/>
<path class="st2" d="M640.2,509l20.6,0h0c7.2,0,13.1,5.9,13.1,13.1c0,0,0,0,0,0v0.4l-33.7,0L640.2,509z"/>
<circle class="st1" cx="620.5" cy="216.6" r="20.9"/>
<path class="st2" d="M641.3,502.5c-2.1,0-3.7-1.6-3.8-3.7l-8.1-107.7c0-0.7-0.6-1.3-1.3-1.2c-0.5,0-0.9,0.3-1.1,0.7l-51.8,98.8
	c-1,1.8-3.2,2.6-5.1,1.7l-14.4-7.2c-1.9-0.9-2.7-3.2-1.7-5.1l30.9-62.6l20.5-46.9c7.9-15.6,16.3-23.6,25.6-24.5
	c9.6-1,19.8,5.6,31.3,20.2l0.1,0.1l0,0.2l-1.7,131.6c0,2-1.5,3.6-3.5,3.8l-15.5,1.9C641.6,502.5,641.4,502.5,641.3,502.5z"/>
<path class="st1" d="M598.4,376.8c4.3-2.7,5.6-8.3,3-12.6c-0.3-0.5-0.6-0.9-1-1.3l3.2-83.4l-15.3,1.9l-1.3,81.2
	c-3.6,3.6-3.5,9.5,0.1,13C590.1,378.5,594.8,379,598.4,376.8L598.4,376.8z"/>
<path class="st3" d="M608.1,294.2l-20.6-2.3c-2.3-0.3-3.9-2.3-3.6-4.5c0-0.2,0.1-0.4,0.1-0.6l5.3-20c0.7-6.3,6.4-10.7,12.7-10
	c6.2,0.7,10.7,6.4,10,12.6l0.7,20.6c0.1,2.3-1.7,4.2-4,4.2C608.5,294.2,608.3,294.2,608.1,294.2L608.1,294.2z"/>
<path class="st1" d="M696.8,241.7c-0.1,0.5-0.2,0.9-0.2,1.4L660,264.2l-8.9-5.1l-9.5,12.4l14.9,10.6c2.5,1.8,5.8,1.7,8.2-0.2
	l37.8-29.8c4.6,1.7,9.8-0.7,11.5-5.3s-0.7-9.8-5.3-11.5c-4.6-1.7-9.8,0.7-11.5,5.3C697,240.9,696.9,241.3,696.8,241.7L696.8,241.7z"
	/>
<path class="st3" d="M658.8,265.2L647,280.5c-1.3,1.7-3.7,2-5.4,0.7c-0.1-0.1-0.3-0.2-0.4-0.4l-13.4-13.9c-4.6-3.6-5.5-10.3-1.8-15
	c3.6-4.6,10.3-5.5,14.9-1.9l16.8,9.4c1.8,1,2.5,3.4,1.5,5.2C659,264.9,658.9,265,658.8,265.2L658.8,265.2z"/>
<path class="st3" d="M668.4,371.4l-22.7-110.7c-2.2-10.9-12.7-18.1-23.7-16.3l-7.6,1.3c-5.3,0.9-10.1,3.8-13.2,8.2l0,0
	c-5,7-6.6,15.9-4.2,24.1l12.5,44.9l-9.3,48.1c-0.4,1.8,0.8,3.6,2.7,4c0.4,0.1,0.8,0.1,1.1,0c4.7-0.7,12.3-1.6,21.2-2.1l4.8-18.4
	l1.9,18.1c10.8-0.3,22.6,0.2,32.3,2.7c1.8,0.5,3.7-0.6,4.2-2.4C668.5,372.4,668.6,371.9,668.4,371.4z"/>
<path class="st2" d="M628.5,211.9c5.4,3.7,12.4,7.5,17.9,3.5c3.6-2.6,4.7-7.3,3.3-11.5c-2.6-7.5-9.9-10.8-16.8-13.4
	c-9-3.3-18.8-5.9-28.1-3.6c-9.3,2.4-17.5,11.4-15.8,20.8c1.3,7.6,8.5,13.9,7.5,21.5c-1,7.7-9.7,11.7-17.3,13.1
	c-7.6,1.4-16.2,1.8-21.6,7.3c-7,7-5.2,19.5,1.3,26.9c6.6,7.4,16.5,10.7,26.1,13c12.7,3,26.5,4.6,38.6-0.4s21.5-18.5,18-31.1
	c-1.5-5.3-5-9.8-8.3-14.2s-6.8-9-8.1-14.4c-1.1-4.5-0.3-9.7,2.7-13.1C629.2,215.2,629.4,213.5,628.5,211.9L628.5,211.9z"/>
<path class="st4" d="M764.9,522.2c0,0.5-0.4,0.9-0.9,0.9H76.9c-0.5,0-0.9-0.4-0.9-0.9c0-0.5,0.4-0.9,0.9-0.9h687.2
	C764.5,521.4,764.9,521.7,764.9,522.2z"/>
<path class="st5" d="M476,512.3c-5.1,3.7-10.7,6.7-16.5,9c-1.5,0.6-3.1,1.2-4.6,1.7h-80.1c-0.3-0.6-0.6-1.1-1-1.7
	c-6.5-11.6-12.4-23.7-14.1-36.8c-2-15.8,3.6-33.6,17.5-41.4c1.8-1,3.7-1.8,5.7-2.4c0.8-0.3,1.7-0.5,2.5-0.6
	c16.2-3.6,32.2,6.6,35.8,22.8c1.2,5.4,0.9,11-0.9,16.2c11.8-12.1,9.6-31.6,5.5-48c-4.1-16.4-9-34.6-0.7-49.3
	c4.6-8.2,12.7-13.2,21.8-15.3c0.3-0.1,0.6-0.1,0.8-0.2c10.8-2.2,22.1-0.2,31.5,5.5c17.4,10.9,26.3,31.7,29.2,52
	C513.1,456.6,502.8,493,476,512.3z"/>
<polygon class="st1" points="215.2,511.8 205,509.4 209.4,469 224.4,472.5 "/>
<path class="st2" d="M215.4,522.2l-32.8-7.7l0.1-0.4c1.7-7.1,8.7-11.4,15.8-9.8c0,0,0,0,0,0l0,0l20,4.7L215.4,522.2z"/>
<polygon class="st1" points="254.8,512.1 244.4,512.1 239.4,471.8 254.8,471.8 "/>
<path class="st2" d="M257.5,522.2l-33.7,0v-0.4c0-7.2,5.9-13.1,13.1-13.1c0,0,0,0,0,0h0l20.6,0L257.5,522.2z"/>
<path class="st1" d="M311.3,352.7c2.6-4.3,1.3-10-3-12.6c-0.5-0.3-0.9-0.5-1.4-0.7l-30.6-77.6l-17,10.3l35.4,73
	c-1.5,4.8,1.1,10,6,11.6C304.6,358,309.1,356.3,311.3,352.7L311.3,352.7z"/>
<path class="st3" d="M282.7,274.6l-19.5,7.2c-2.1,0.8-4.5-0.3-5.3-2.4c-0.1-0.2-0.1-0.4-0.2-0.6l-4.3-20.2
	c-2.2-5.9,0.9-12.5,6.8-14.6c5.9-2.1,12.4,0.9,14.6,6.8l9.9,18.1c1.1,2,0.4,4.5-1.6,5.6C283.1,274.4,282.9,274.5,282.7,274.6
	L282.7,274.6z"/>
<path class="st2" d="M254.1,497.6c-0.1,0-0.1,0-0.2,0l-14.8-0.6c-2.1-0.1-3.7-1.8-3.7-3.9l1.1-81.8c0-0.7-0.6-1.3-1.3-1.3
	c-0.7,0-1.2,0.5-1.3,1.1l-8.6,81.9c-0.2,1.7-1.5,3.1-3.2,3.4l-0.1,0l-13.9-1.1c-2.1,0.3-4.1-1.1-4.4-3.2c0-0.2,0-0.4,0-0.6
	l0.8-138.8l68.2,4.3l-15,137.1C257.7,496.1,256.1,497.6,254.1,497.6z"/>
<circle class="st1" cx="241.6" cy="210.7" r="20.9"/>
<path class="st3" d="M269.6,363.2c-0.1,0-0.2,0-0.3,0l-63.1-4.6c-2-0.1-3.6-1.9-3.6-3.9l1.7-79.2c-0.5-19.7,15.2-36.1,34.9-36.5
	c19.7-0.5,36.1,15.2,36.5,34.9c0,1.3,0,2.7-0.1,4c-1.1,12.2-2,65.5-2.2,81.6C273.4,361.5,271.7,363.2,269.6,363.2z"/>
<path class="st1" d="M157.2,234.2c0.1,0.5,0.2,0.9,0.2,1.4l36.6,21.1l8.9-5.1l9.5,12.4l-14.9,10.6c-2.5,1.8-5.8,1.7-8.2-0.2
	l-37.8-29.8c-4.6,1.7-9.8-0.7-11.5-5.3c-1.7-4.6,0.7-9.8,5.3-11.5c4.6-1.7,9.8,0.7,11.5,5.3C157,233.5,157.1,233.9,157.2,234.2
	L157.2,234.2z"/>
<path class="st3" d="M194.5,254.6c0.2-1.1,0.9-2,1.9-2.6l16.8-9.4c4.7-3.6,11.4-2.7,14.9,1.9c3.6,4.6,2.7,11.3-1.9,14.9l-13.4,13.9
	c-1.5,1.5-3.9,1.6-5.4,0.1c-0.1-0.1-0.3-0.3-0.4-0.4l-11.8-15.3C194.5,256.9,194.3,255.7,194.5,254.6z"/>
<path class="st2" d="M252.5,227.3c-6.6,0-12.6-3.5-16.1-9c-0.2-0.3-1.2-1.8-2.4-3.5c-3.3-4.8-4-6-4.1-6.1c-0.9-2.3-3.7-3.2-5.9-3.5
	c-0.4-0.1-0.8-0.1-1.2-0.2c-3.1-0.4-6.3-0.8-8.1-4.3c-1.3-2.5-3.4-12.7-1.8-15.2c2-3.1,5.9-2.1,9.7-1.1c2.4,0.6,4.9,1.3,6.9,0.9
	c8.6-1.8,18.4-3.8,27.1,1.4c6.9,4.2,11,12.1,10.8,20.6c-0.2,9.2-4.2,16.4-10.7,19.4l-1.3,0.4l-0.8,0.1
	C253.9,227.2,253.2,227.3,252.5,227.3z"/>
<path class="st6" d="M391.8,450.5c6.4,13,8.5,27.8,5.8,42c-2,10.5-6.3,20.3-12.8,28.8c-0.4,0.6-0.9,1.2-1.3,1.7h-3.2
	c0.5-0.6,1-1.1,1.4-1.7c11.8-14.7,16.7-33.7,13.6-52.2c-1.8-10.3-6.1-20.1-12.4-28.4c0.8-0.3,1.7-0.5,2.5-0.6
	C387.9,443.4,390,446.9,391.8,450.5z"/>
<path class="st6" d="M468.4,459.9c-0.7,7.2-2.4,14.3-5.1,21c-2.5,5.9-5.9,11.5-10,16.4c-8.5,10.2-19.7,17.9-31.8,23
	c-0.9,0.4-1.8,0.7-2.7,1.1c-1.6,0.6-3.2,1.2-4.7,1.7h-8.6c2-0.5,4.1-1.1,6.1-1.7c4.8-1.5,9.4-3.3,13.9-5.5
	c11.4-5.4,21.3-13.5,28.9-23.7c8.1-11.2,11.7-24.6,12.3-38.2c0.6-14.6-1.3-29.5-4.6-43.7c-3.4-14.6-8.6-28.7-15.4-42
	c-0.3-0.6-0.1-1.4,0.5-1.7c0.2-0.2,0.5-0.2,0.8-0.2c0.3,0.1,0.5,0.3,0.6,0.5c0.8,1.6,1.7,3.3,2.5,5c6.6,13.9,11.5,28.5,14.5,43.5
	C468.3,430,469.9,445.2,468.4,459.9z"/>
</svg>
