<svg xmlns="http://www.w3.org/2000/svg" viewBox="0 0 229.95 87.61"><defs><style></style></defs><title>social-media</title><g id="Layer_2" data-name="Layer 2"><g id="Layer_1-2" data-name="Layer 1"><circle class="psr_main_svg_color" cx="115.91" cy="31.47" r="15.24"/><path class="psr_main_svg_color" d="M80.52,86.74a35.4,35.4,0,0,1,70.79.58"/><circle class="psr_main_svg_color" cx="194.05" cy="31.61" r="15.24"/><path class="psr_main_svg_color" d="M158.66,86.89a35.4,35.4,0,0,1,70.79.58"/><circle class="psr_main_svg_color" cx="35.9" cy="31.76" r="15.24"/><path class="psr_main_svg_color" d="M.5,87a35.4,35.4,0,0,1,70.8.58"/><circle class="psr_main_svg_color" cx="73.94" cy="12.89" r="11.51"/><path class="psr_main_svg_color" d="M47.22,54.62a26.73,26.73,0,0,1,53.45.44"/><circle class="psr_main_svg_color" cx="154.17" cy="12.01" r="11.51"/><path class="psr_main_svg_color" d="M127.44,53.73a26.73,26.73,0,0,1,53.45.44"/></g></g></svg>