<svg xmlns="http://www.w3.org/2000/svg" viewBox="0 0 79.58 96.45"><defs><style>.cls-1{fill:#403e56;}.cls-2{fill:#302f42;}.cls-3{fill:#84cfe9;}.cls-4{fill:#f6b6b9;}.cls-5{fill:#fff;}.cls-6{fill:#e7e6e6;}.cls-7{fill:#fdfdfe;}.cls-8{fill:#d7d6dd;}.cls-9{fill:#7a606c;}.cls-10{fill:#7b7985;}.cls-11{fill:#9c767f;}.cls-12{fill:#585ea7;}</style></defs><title>web-technical</title><g id="Layer_2" data-name="Layer 2"><g id="Layer_1-2" data-name="Layer 1"><path class="cls-1" d="M36.14,38.89c.27,0,.39-.28.56-.44q8.43-8.16,16.84-16.31c1.48-1.44,2.69-1.56,4.4-.44L78,34.88a2.93,2.93,0,0,1,.52,4.91c-1.88,1.9-3.83,3.75-5.65,5.71-1.12,1.22-2.26,2.42-3.43,3.58C54,64.26,38.92,79.69,23.68,95l-.38.37a3,3,0,0,1-4.6,0L7.09,83.59q-3-3-6-6.1a2.91,2.91,0,0,1,.07-4.57Q16.54,58,31.94,43.06c.25-.24.67-.4.62-.86a2.62,2.62,0,0,1,.84,1.55,7.07,7.07,0,0,1-1.54,1.64c-1.83,1.6-3.47,3.4-5.23,5.08-3.41,3.26-6.71,6.62-10.12,9.88-2.58,2.46-5,5-7.65,7.46-1.73,1.61-3.39,3.3-5.09,5-.85.83-.83,1,0,1.78l.29.27c3,3,6.12,6,9.17,8.94,1.83,1.77,3.62,3.58,5.48,5.31l2.5,2.38c.62.59.91.6,1.52,0C24.85,89.33,27,87.28,29,85.15c2.74-2.85,5.64-5.56,8.41-8.39,4.31-4.41,8.76-8.7,13.06-13.12,3.65-3.74,7.45-7.33,11.06-11.1,3.8-3.95,7.78-7.74,11.62-11.65.71-.73,1.39-1.49,2.1-2.22.47-.48.43-.87-.11-1.27a17.6,17.6,0,0,0-1.63-1,3.45,3.45,0,0,0,0,.64,2.26,2.26,0,0,1-3.33,2,22.8,22.8,0,0,1-2.5-1.63c-4-2.75-8-5.47-12-8.21a5.92,5.92,0,0,1-1-.83,2.23,2.23,0,0,1,.17-3.34c.45-.38.3-.52-.09-.73-.68-.38-.92-.36-1.48.17l-.09.09c-4.26,4.31-8.71,8.44-13,12.74-1,1-2,1.82-2.94,2.78-.15.15-.3.35-.57.24A2,2,0,0,1,36.14,38.89Z"/><path class="cls-2" d="M36.14,38.89l.57,1.5c.56.48.54,1.25.89,1.84.65,1.76,1.36,3.49,1.88,5.29.11.41.27.81,0,1.2a5,5,0,0,1-2.61,1.15c-.4,0-.55-.32-.72-.61-.74-1.25-1.34-2.58-2.07-3.84a7,7,0,0,1-.7-1.66l-.79-1.56-.62-1.09a10.24,10.24,0,0,1-.75,1.52c-.38.49-.78,1.09-1.49.88S29,42.57,29.12,42a3.63,3.63,0,0,0-.75-2.52c-.49-.78-1-1.54-1.55-2.29-.16-.23-.27-.44-.09-.71a11,11,0,0,0,.66-2.66,2.3,2.3,0,0,0-.12-1.22c-.95-1.75-1.77-3.6-3.69-4.57a20,20,0,0,0,1.67,2.1,1.7,1.7,0,0,1,.55.88,11.73,11.73,0,0,1-2.31,2.41c-.21.22-.41.08-.6,0a35.36,35.36,0,0,1-7.16-4.63,8.05,8.05,0,0,1-1.86-2.21,2.25,2.25,0,0,1,.82-3.31,12.85,12.85,0,0,1,4.67-1.61,52.68,52.68,0,0,1,6-.67c1.36-1.49,2.69-3,4.77-3.51a2.45,2.45,0,0,1,2,.13,9.73,9.73,0,0,1,2.68,5.83,5.28,5.28,0,0,1-1.22,4.12c-.43.48-.58,1.18-1,1.7-.16.2,0,.38.09.55Z"/><path class="cls-3" d="M32.16,17.63a5.41,5.41,0,0,0-4.73,1.53A21.5,21.5,0,0,1,25.36,21a25.38,25.38,0,0,0-.58-3c-.09-.44-.49-.65-.89-.79a6.45,6.45,0,0,1-2.38-1.37c-.56-.25-.55-.58-.22-1.05a11,11,0,0,0,1-1.77,3.18,3.18,0,0,1,2.78-1.91l0,.05c.17.22-.22.59.11.7s.63-.16.87-.38a8.63,8.63,0,0,0,2.82-3.43,1.32,1.32,0,0,1,.2-.34,2.35,2.35,0,0,1,1-.56c.12,0,.25,0,.37-.06a.63.63,0,0,1,.36,0,4.35,4.35,0,0,1,4.18,2c.76,1,1.62,2,2.46,3l-2.12,1a5.49,5.49,0,0,1-2.27.94c-.6,0-.79.35-.79,1A8.25,8.25,0,0,1,32.16,17.63Z"/><path class="cls-2" d="M30.14,7.27l-.95.49a1.81,1.81,0,0,1-.9.53c-.62.22-.71.16-.94-.5a2.2,2.2,0,0,1,0,.51.65.65,0,0,1-.38.51c-.25.13-.53.32-.8.16s-.16-.48-.11-.73a5.91,5.91,0,0,0-.24-3.43c-.16-.44-.41-.78-.94-.77a.32.32,0,0,1-.22-.34c0,.14,0,.29,0,.42-.18.3-.5.35-.78.48-.72.33-1.48.59-2.21.91a1.09,1.09,0,0,1-.32.1c-.45,0-.62.28-.51.79A3,3,0,0,0,24,8.62a1.35,1.35,0,0,1,.66,0c.36.12.73.26.61.77-.53.21-1.07.41-1.59.65s-.64.17-.7-.34a1.1,1.1,0,0,0-.24-.53,2,2,0,0,0,0,.55c.15.77-.45.88-.95,1.09-.28.12-.29-.12-.35-.26-.5-1.2-1.05-2.38-1.47-3.6A5,5,0,0,1,23.44.11,6.09,6.09,0,0,1,30,3.54c.43.86.73,1.79,1.16,2.66.25.5.11.73-.34.91l-.24.13c-.26-.17-.2-.46-.27-.69,0,.13,0,.26,0,.39A.47.47,0,0,1,30.14,7.27Z"/><path class="cls-4" d="M33.07,14a14.48,14.48,0,0,1,2.27-.94c1.3,2.45,3.47,4.21,5.07,6.42.37.52.77,1,1.15,1.53a8.61,8.61,0,0,0,3.17,3,2.22,2.22,0,0,1,.56.46c.35.36.66.75.29,1.28a1.19,1.19,0,0,1-1.58.42,3.35,3.35,0,0,1-1.6-1.7,7.23,7.23,0,0,0-2-2.12c-1.65-1.52-3.55-2.79-4.95-4.57A28.2,28.2,0,0,1,33.07,14Z"/><path class="cls-4" d="M21.51,15.84a20,20,0,0,1,2.38,1.36,10.06,10.06,0,0,1-3.59,3.45,1.18,1.18,0,0,1-1.6-.52,9.71,9.71,0,0,1-1.37-3.48,28.17,28.17,0,0,1-.92-6.77,3.24,3.24,0,0,1,.35-1.46.77.77,0,0,1,.8-.47.83.83,0,0,1,.73.59,4,4,0,0,1,.12,1.37,12.36,12.36,0,0,0,.51,4.76A20.34,20.34,0,0,0,20,16.91c.28.48.46.32.69,0Z"/><path class="cls-4" d="M25.23,9.37a.79.79,0,0,0-1-.62,3.2,3.2,0,0,1-3.62-2.46c-.13-.51.53-.64.27-1.11.19.2.31.38.62.24,1-.46,2.06-.89,3.09-1.33.07-.09.11-.22.27-.15.66-.29.91.11,1.13.63a6.19,6.19,0,0,1,.26,3.87c0,.14-.05.29-.09.55.42-.3,1-.11,1.11-.78.19-.19-.18-.56.24-.67.18.82.18.82.91.52.27-.11.54-.2.81-.3a8.44,8.44,0,0,1-3.2,4,1.58,1.58,0,0,1-.46.25c-.18.06-.37.22-.57.07s0-.4,0-.6a2.24,2.24,0,0,1,.1-.37C25.25,10.54,25.8,10,25.23,9.37Z"/><path class="cls-4" d="M23.49,33.46l2.22-2.39a6.1,6.1,0,0,1,1.65,1.47.74.74,0,0,1,.27.64c-.16,1.15-.07,2.37-.9,3.34C25.73,35.42,24.55,34.49,23.49,33.46Z"/><path class="cls-5" d="M37.44,42.21l-.73-1.82L52.88,24.63c1-1,1-1,2.23-.21l.37.24c0,.17-.14.18-.23.24a2.15,2.15,0,0,0-.12,3.77c1.25.88,2.52,1.72,3.78,2.58q5.43,3.7,10.87,7.41A2.21,2.21,0,0,0,73,38.3,2.44,2.44,0,0,0,73.22,36c.82.53,1.59,1,2.3,1.5.44.31.37.82-.11,1.31l-5.85,5.88L22.94,91.49c-.82.82-1,.81-1.86,0l-17.56-17c-.74-.71-.76-1-.06-1.68L32.94,44.08a4.47,4.47,0,0,1,.41-.32l.81,1.57c.16.45-.21.64-.44.88-2.39,2.37-4.82,4.7-7.15,7.12C23.82,56.19,21,59,18.18,61.75c-.35.36-.41.59,0,1,2.14,2,4.27,4,6.45,6,.84.75,1.64,1.54,2.46,2.32,1.78,1.69,3.61,3.33,5.37,5,.33.33.58.34.86,0a.47.47,0,0,1,.1-.1c5.88-5.91,11.9-11.69,17.85-17.54,4-3.92,7.93-7.9,12-11.77,1.86-1.77,3.67-3.59,5.51-5.37.54-.53.52-.53-.11-.94C65.1,38,61.53,35.76,58,33.46c-2.12-1.37-4.24-2.75-6.37-4.11a.77.77,0,0,0-1.15.1c-3.69,3.69-7.41,7.36-11.11,11.05-.45.45-.81,1-1.3,1.41C37.87,42.06,37.74,42.31,37.44,42.21Z"/><path class="cls-6" d="M37.44,42.21a14.09,14.09,0,0,0,1.76-1.78C43,36.69,46.71,33,50.45,29.23a.73.73,0,0,1,1.11-.1q6.94,4.52,13.91,9c1.19.76,2.39,1.51,3.59,2.26.34.22.47.37.1.73-1.67,1.62-3.26,3.32-5,4.88-1.34,1.23-2.61,2.52-3.9,3.79-6.08,6-12.11,12-18.23,17.91-2.94,2.85-5.83,5.74-8.75,8.61-.37.37-.54.31-.88,0-1.84-1.78-3.7-3.55-5.59-5.28-1.54-1.42-3.07-2.86-4.6-4.3S19.31,64,17.88,62.66c-.32-.32-.4-.53,0-.82a4.26,4.26,0,0,0,.43-.42Q26,53.7,33.73,46c.19-.18.42-.34.43-.64l2.15,4c.11.2.16.48.48.46a4,4,0,0,1,1,2.39,1.42,1.42,0,0,1-.94.27,13.38,13.38,0,0,0-5.61,1.48,6.2,6.2,0,0,0-2.09,1.71,3,3,0,0,0,.26,4.15,8.6,8.6,0,0,0,4.2,2.31,16.67,16.67,0,0,0,10-.29,8.28,8.28,0,0,0,3.27-2,3.21,3.21,0,0,0,0-4.52,9.62,9.62,0,0,0-5.29-2.56.61.61,0,0,1-.42-.26,21.75,21.75,0,0,1-1.88-3.81c.23-.25.13-.51.06-.8C38.86,45.94,38.08,44.1,37.44,42.21Z"/><path class="cls-4" d="M37.76,52.11c-.18-.84-.79-1.51-1-2.35a7.16,7.16,0,0,0,2.55-1.1c.58.85.94,1.82,1.44,2.72l.54,1a1.75,1.75,0,0,1-1.9,1.23,8.18,8.18,0,0,1-1,0A3.51,3.51,0,0,1,37.76,52.11Z"/><path class="cls-7" d="M27.36,32.54a7.7,7.7,0,0,1-1.65-1.47,25.78,25.78,0,0,0-2.17-2.62c-.13-.17-.28-.32-.47-.54a1.89,1.89,0,0,1,1.68.63A14.3,14.3,0,0,1,27.36,32.54Z"/><path class="cls-8" d="M30.14,7.27l0-.39c.19-.18-.16-.54.22-.64l.2,1Z"/><path class="cls-9" d="M27.47,7.54c-.26.16,0,.48-.24.67,0-.26,0-.51,0-.77,0-.08,0-.25.15-.18S27.48,7.43,27.47,7.54Z"/><path class="cls-10" d="M30.38,6.24c-.21.16-.07.45-.22.64a2,2,0,0,1,0-.7C30.28,5.87,30.34,6.11,30.38,6.24Z"/><path class="cls-11" d="M24.82,3.94l-.27.15c0-.15-.09-.37.1-.43S24.81,3.81,24.82,3.94Z"/><path class="cls-12" d="M17.84,78.2a3.57,3.57,0,1,1,0-7.13,3.57,3.57,0,0,1,3.57,3.54A3.53,3.53,0,0,1,17.84,78.2Z"/><path class="cls-5" d="M37.76,52.11a4,4,0,0,1,.67,1.44,22,22,0,0,1-1.7,3.57c-.48.74-1.21,1.29-1.63,2.07a5.3,5.3,0,0,0-.38.7c-.24.68,0,1,.72.85a8.14,8.14,0,0,0,3.7-1.84,1.85,1.85,0,0,0,.28-.28A3.21,3.21,0,0,1,41.93,57a1.53,1.53,0,0,0,.66-.31A1.27,1.27,0,0,0,43,54.58c-.31-.38-.62-.75-.94-1.12s-.44-.44-.41-.79a.25.25,0,0,1,.28-.13,10,10,0,0,1,5.21,2.69A3.29,3.29,0,0,1,47,59.91a9.33,9.33,0,0,1-4.77,2.46,16.13,16.13,0,0,1-11.18-1.12,5.76,5.76,0,0,1-2.29-2,3.27,3.27,0,0,1,.4-4.07,10.46,10.46,0,0,1,6.14-2.84C36.13,52.25,37,52.2,37.76,52.11Z"/><path class="cls-2" d="M41.6,52.67c.48.58.95,1.16,1.44,1.73a1.44,1.44,0,0,1-.32,2.44,2.51,2.51,0,0,1-1.41.53,1.35,1.35,0,0,0-1.15.68,8,8,0,0,1-4.73,2.86.84.84,0,0,1-.92-.19c-.22-.28-.07-.59.05-.87a4.5,4.5,0,0,1,1.06-1.66,11.51,11.51,0,0,0,2.37-4c.1-.25.16-.51.44-.63s.34-.17.49-.14a2.25,2.25,0,0,0,2.4-1Z"/></g></g></svg>