<svg xmlns="http://www.w3.org/2000/svg" viewBox="0 0 3242.25 2117.11"><defs><style>.cls-2{fill:#FFCD39;opacity:0.05;}</style></defs><title>web-bg-hands</title><g id="Layer_2" data-name="Layer 2"><g id="Layer_1-2" data-name="Layer 1"><g><path class="cls-2" d="M408.88,1.52C417,71,422.6,128.9,426.43,172.25c4.77,54,6.57,83.07,7.67,103.87,2.42,45.39,1.39,49.62,3.24,94.26,3.3,79.21,7.88,98,10.8,180.94,2,57.1.77,74.58-2.65,93.79-3.91,22-10.94,59.49-35.14,94.73-17.72,25.81-29.75,28.73-79.89,67.18-64.43,49.4-92.71,77.69-121.93,106-56.67,54.81-67.56,68.36-80.22,77.52a117.45,117.45,0,0,1-11.62,7.21c-10.4,6.28-31.52,19-52.91,28.18C26.25,1041.94,9,1037.93,2.24,1053c-.27.62-4.11,9.52-1.08,18.42,10.56,31,100.1,49.22,159.79,15.17,23.68-13.51,20.24-22.45,66.94-55.26,27.45-19.28,49.26-33.4,73.25-28.12,3.09.68,20,4.4,28.24,18.37,8.94,15.18,1.78,32.49-6.48,59.59-14.84,48.69-5.21,37-20.51,86.68-16.26,52.76-23.61,54.48-33.47,95.34-2.3,9.51-2.22,10.75-10.8,71.51-7.64,54.11-11.34,78.93-13,114.85-2.27,50.52,2,70.51,14,76.92,3.57,1.89,12.72,5.2,21.59,2.17,10.68-3.64,11.74-13.3,19.44-14.09,10.1-1,14,15,24.83,17.34,16.22,3.44,35.54-26.85,41-35.75,24.87-40.39,31.77-74.08,42.1-111.6,15.38-55.82,37.58-117.25,43.19-115.93,4.35,1-.83,39.87-4.32,66.09-4.85,36.44-7.28,54.66-10.8,68.26-6.27,24.25-11.69,34.16-6.47,47.67,4.25,11,14.83,22.5,28.07,23.84,13.08,1.31,23.51-7.82,28.07-11.92,25.14-22.65,26.2-60.33,33.47-113.77,4.74-34.87,13.46-86.24,32.32-140.57,7.76-22.35,24-69.21,36.78-67.45,11,1.52,14.31,38.29,15,45.58,1.94,21.39-2.31,50.09-10.9,106.6-3.36,22.1-5.69,37.44,3.48,46.09,6.65,6.28,17.85,7.64,25.92,5.42,28.23-7.76,33.21-63.51,48.58-145.18,4.17-22.14,12.49-58.1,29.15-130,29.39-126.9,55.79-183.94,66.94-282.78,8.11-71.9.27-96-9.72-111.59-4.62-7.21-16.71-23.48-22.67-48.76A131.61,131.61,0,0,1,731,589.24c4.22-89.55,55-378.72,55-378.72A1176.34,1176.34,0,0,0,803.35.93Z"/><path class="cls-2" d="M1039.87,925.31c4,14.06,2.93,26.48.64,50.74-1.22,12.88-2.7,22.5-2.56,38.54.08,8.62.59,16.14,5.12,23.77,1.68,2.83,5.79,9.54,14.08,12.85,1.42.56,12.91,5,19.85-.64,4.3-3.49,4.64-9.06,5.12-19.28,1.5-32.21.83-33.75,1.92-43,.31-2.68,0,.38,7.68-32.76,1.42-6.17,2.3-10,5.76-13.49,5.79-5.79,15.6-7.18,23-4.5,8.62,3.11,12.92,11.25,14.73,14.78,14.49,28.35,32.59,81,44.16,109.19,9.23,22.52,15.9,33.43,27.53,37.26,8.82,2.91,21.14,2,26.88-5.14,4.52-5.58,4-13.77-9-50.74-13.56-38.73-20.34-58.09-21.76-61.67-7.68-19.34-13.4-31.93-7.69-38.54,3.78-4.37,10.75-4,14.09-3.85,8.58.43,17.36,4.58,41,29.54,9.11,9.63,15.21,16.08,23.69,27,10.15,13.06,16.61,23.34,26.88,39.83,17.7,28.39,23.38,40.62,38.41,48.17,6.29,3.17,11.57,4.17,16.64,3.22,8.56-1.61,16.54-8.79,19.2-16.7,3.43-10.18-3.26-17.71-29.44-60.39a423.5,423.5,0,0,1-21.12-37.89c-6.47-13.22-14.17-29-11.53-30.84,2.85-2,15.91,13.36,46.73,45,36.4,37.33,48.8,47.33,60.81,44.32,6.53-1.64,12.58-7,15.36-13.49,5.61-13-3.19-28-63.37-104.06-29.5-37.29-44.41-56-51.21-61-16.3-12.05-35-21-34.56-34.69.24-6.89,5.29-13,10.24-16.06,9.62-6,19.94-1.13,44.81,5.78,0,0,24.31,6.84,51.21,11.56,21.47,3.77,32.51,5.61,47.36,3.22,9.44-1.52,30.14-5.15,38.41-20.56,1.38-2.57,4.09-7.63,2.56-12.85-3-10.16-19.81-13.13-30.72-15.41-22.27-4.65-43.19-14.54-65.3-19.92-11-2.67-44.38-17.87-110.73-48.17,0,0-17.07-7.8-71-34.69-33-16.41-41.3-21-49.93-31.47-7.66-9.27-12.51-19.44-23-62.95-9-37.17-9.13-32.27-14-65.11-7.28-48.81-27.21-244.41-50.53-510.12L818.39,1.52c5.12,43.11,13.08,101.53,25.61,170.31,4,21.88,15.73,85.3,36.49,170.22C891,384.88,939,577.76,961.78,654.88a271,271,0,0,1,10.88,52c2.57,24.62-1.2,31.58,1.92,51.39,3,19.3,8.64,34.06,19.84,63.59,15.08,39.74,22.62,59.62,34.57,80.29C1033.32,909.68,1037.08,915.5,1039.87,925.31Z"/><path class="cls-2" d="M1737.52,1.52,1555,1.37c-20.6,92.7-26,144.71-26.4,176.12-.11,9.3,0,32-11.94,56.84-6.89,14.29-16.48,24.36-35.37,43.91-35,36.22-61.49,53.69-74.75,61.76-15.32,9.31-23.19,14-33.33,15.46-17,2.46-29.8-3.3-38.06,5.13a17.9,17.9,0,0,0-4.94,12.68c.3,11.43,13.1,18.83,18.53,22,15.61,9,31.67,8.56,38,8.19,47.18-2.77,70.17-31.78,79.45-24.86,14.95,11.12-29.7,97.31-35.91,109.32-23.44,45.25-39.73,93.92-61.53,140-2,4.19-7.49,15.74-2.61,24.2,4.11,7.13,13.85,8.46,15,8.61,1.89.23,9.07.9,18.58-5.2,11.49-7.37,15.09-17.38,27.7-44.08,3-6.26,7.79-16.36,14.13-28.95-3,18-5.4,32.11-7,41.12a254.78,254.78,0,0,0-3.88,31.47c-1.28,22.27,1.63,26.78,4,29.1,5.19,5.14,14.82,6.69,22.3,3.82,11-4.21,15.1-17.12,26.45-59.13,8-29.65,8.39-32.32,10.59-39.88,12.29-42.33,36.55-88.88,46.59-86.22,5.31,1.41,5.42,17.31,5.62,49.1.2,30.11,3.92,60.19,2.87,90.27-.15,4.23-.53,13.49,5.28,18.22,5.48,4.45,14.54,3.28,20.52.17,7.34-3.82,11.13-11.15,14.05-20.48,6-19.15,3.58-31.48,3.47-53.87-.14-30.7,4.35-25.72,4.09-56.29-.19-23.12-2.81-32.67,4-46,1.16-2.26,10.43-19.89,22.49-19.19,3,.17,7,1.54,13.21,8.59,11,12.5,12.32,24.07,21.88,52.88,5.79,17.41,9.14,24.75,16.66,28.6,1.74.89,8.6,4.1,15.08,1.34,7.79-3.31,10-13.1,11-17.47,1.67-7.35,1.53-15.78-6.9-41.24-2.19-6.63-4-11.55-8.85-24.31-12.76-33.81-14.68-36.28-16.52-44.95-2.71-12.81-1.32-23.65,1.58-44.81,4.67-34.11,9.42-36.85,14.45-67.71,3.66-22.47,6.77-42.64,2.8-67.8-3-19-12.89-26-13.32-45.55-.37-16.68,5-29.17,7.35-35C1693,139.06,1712,82.06,1737.52,1.52Z"/><path class="cls-2" d="M1399.36,1519c-5.91,18.67,32.69,50.35,68,65a155.35,155.35,0,0,0,60.46,11.92c69.81-1.31,85.72-51.59,151.15-54.18,8.43-.33,52.07-2,83.13,26s33.35,74.31,33.47,125.68c.07,30-5,59.75-15.11,118.1-1.52,8.74-8.59,81.42-22.67,226.44-.83,8.47-3.19,32.84,10.79,54.17,2.71,4.14,16.83,25.67,37.79,24.92,16.43-.59,27.39-14.52,31.31-19.5,14-17.85,14.83-38.93,15.12-45.51,1.09-24.83,9.36-71.09,25.91-163.6s33.13-103.51,42.1-105.09a13.06,13.06,0,0,1,8.64,1.08c13.78,7.68,5.14,45.29,0,74.76-7.22,41.39-6.61,86.1-5.4,175.52.48,35,2.13,57.8,18.36,69.34,11.39,8.1,28.83,9.64,42.1,3.25,23.56-11.33,29-45.23,37.79-105.1,1-6.67,3.21-22.51,5.4-48.75,6.21-74.49,2.06-112.33,21.59-161.44,9.59-24.11,14.17-24,15.12-23.83,6.07.91,7.15,23.21,10.8,87.76,4.29,76.14,4.32,72,4.31,74.76,0,62.86-10,86,7.56,107.26,3.32,4,14.19,15.92,30.23,17.33,19.53,1.73,34.59-13.1,37.79-16.25,15.68-15.43,19.57-37,17.27-124.6-.88-33.94-1.12-67.9-2.15-101.84-1.54-50.13-2.9-74.93,14-88.84,14.34-11.79,33.9-9.27,37.79-8.67,12.92,2,25.86,9.11,59.38,52,21.6,27.63,23.5,34,43.19,59.59,29.84,38.84,45.1,58.22,61.54,56.34,16.1-1.84,29.11-21.23,32.39-37.92,3.36-17.12-4.07-28.68-22.68-65-32-62.57-24.46-56.53-38.86-79.1-28.67-44.89-43.69-42.6-56.15-72.59-14.06-33.84-9.42-59.76-7.55-99.68,3.1-66.46-3.23-116-14-182-18.2-111.06-48.66-125.92-51.82-222.11-.53-16.11,2.16-44.33,7.56-100.76,8.3-87,14.54-122.89,34.54-271.94,11.83-88.12,10-105.67,22.68-253.53C2327.15,92.09,2316,3.27,2316,3.27H1865.77c5.37,114.88,11,235,15.12,320.7,19.71,414.29,23.34,475,15.11,559.06-8.68,88.74-28.41,177.73-22.67,274.12.52,8.75,1.4,20-2.16,34.67-11.31,46.57-52,63.88-153.31,135.43-39,27.54-58.51,41.31-71.26,53.09-36.26,33.51-49.13,57.43-92.85,88.84-20.4,14.66-36.12,22.76-55.06,26-16.5,2.82-21.24-.46-42.11,2.16C1437.15,1499.8,1404.13,1504,1399.36,1519Z"/><path class="cls-2" d="M2427.25,1.52,2623.72.93c21.06,98.67,26.34,154,26.48,187.35,0,9.88-.3,34,12.18,60.48,7.19,15.25,17.29,26,37.19,47,36.87,38.79,64.85,57.59,78.87,66.28,16.2,10,24.51,15.07,35.27,16.73,18,2.76,31.69-3.24,40.4,5.79a19,19,0,0,1,5.13,13.51c-.42,12.14-14.09,19.88-19.88,23.16-16.67,9.44-33.73,8.82-40.4,8.37-50.09-3.37-74.26-34.39-84.19-27.13-16,11.69,30.69,103.66,37.19,116.47,24.5,48.29,41.37,100.14,64.13,149.28,2.07,4.48,7.81,16.8,2.56,25.74-4.43,7.54-14.79,8.87-16,9-2,.24-9.64.87-19.69-5.69-12.15-7.93-15.88-18.59-29-47.07-3.09-6.68-8.13-17.46-14.75-30.89,3,19.16,5.44,34.17,7.05,43.76a269.66,269.66,0,0,1,3.85,33.46c1.16,23.67-2,28.44-4.49,30.88-5.56,5.41-15.81,7-23.72,3.86-11.65-4.57-15.89-18.32-27.58-63.06-8.24-31.57-8.63-34.41-10.9-42.47-12.68-45.07-38-94.75-48.73-92-5.66,1.45-5.91,18.34-6.41,52.12-.48,32-4.69,63.9-3.85,95.88.12,4.48.45,14.34-5.77,19.3-5.86,4.68-15.48,3.36-21.8,0-7.76-4.13-11.73-11.95-14.75-21.88-6.21-20.4-3.52-33.48-3.2-57.27.42-32.62-4.39-27.36-3.85-59.84.41-24.56,3.28-34.69-3.85-48.9-1.21-2.42-10.91-21.23-23.72-20.59-3.21.15-7.47,1.57-14.11,9-11.78,13.19-13.31,25.47-23.73,56-6.29,18.45-9.92,26.22-17.95,30.24-1.85.93-9.17,4.28-16,1.29-8.24-3.59-10.52-14-11.54-18.66-1.71-7.82-1.49-16.78,7.69-43.76,2.39-7,4.39-12.23,9.62-25.74,13.86-35.81,15.93-38.42,18-47.62,3-13.58,1.6-25.11-1.29-47.61-4.66-36.29-9.68-39.24-14.75-72.07-3.68-23.9-6.82-45.36-2.37-72.05,3.35-20.12,13.92-27.5,14.56-48.28.54-17.59-4.93-30.81-7.51-37.22C2475.72,145.55,2455,84.77,2427.25,1.52Z"/><path class="cls-2" d="M2772.91,701.64c-2.72,8.59,15.05,23.17,31.3,29.91A71.61,71.61,0,0,0,2832,737c32.13-.61,39.45-23.74,69.55-24.93,3.88-.15,24-1,38.26,12s15.34,34.2,15.4,57.84c0,13.79-2.3,27.49-7,54.34-.7,4-4,37.47-10.43,104.19-.38,3.9-1.47,15.11,5,24.93,1.25,1.9,7.74,11.81,17.39,11.47,7.55-.27,12.6-6.69,14.4-9,6.46-8.21,6.83-17.91,7-20.94.5-11.43,4.31-32.71,11.92-75.28s15.25-47.63,19.38-48.36a6,6,0,0,1,4,.5c6.34,3.54,2.37,20.85,0,34.4-3.32,19.05-3,39.62-2.48,80.77.22,16.11,1,26.59,8.44,31.9a20,20,0,0,0,19.38,1.5c10.84-5.21,13.34-20.81,17.39-48.36.45-3.07,1.47-10.36,2.48-22.43,2.86-34.28.95-51.69,9.94-74.29,4.41-11.09,6.51-11,7-11,2.79.43,3.29,10.69,5,40.39,2,35,2,33.13,2,34.4,0,28.92-4.61,39.56,3.47,49.35,1.53,1.85,6.53,7.33,13.91,8,9,.79,15.92-6,17.39-7.48,7.22-7.1,9-17,7.95-57.33-.41-15.62-.52-31.25-1-46.86-.71-23.07-1.34-34.48,6.46-40.89,6.59-5.42,15.6-4.26,17.38-4,6,.9,11.9,4.19,27.33,23.93,9.93,12.71,10.81,15.63,19.87,27.42,13.73,17.87,20.75,26.78,28.32,25.92,7.41-.85,13.39-9.77,14.9-17.45,1.55-7.88-1.87-13.2-10.43-29.91-14.75-28.79-11.26-26-17.89-36.39-13.19-20.66-20.1-19.61-25.83-33.41-6.47-15.57-4.34-27.5-3.48-45.86,1.43-30.58-1.48-53.39-6.46-83.76-8.37-51.1-22.39-57.94-23.84-102.2-.25-7.42,1-20.4,3.47-46.37,3.83-40,6.7-56.54,15.9-125.13,5.44-40.55,4.59-48.62,10.44-116.66,16.06-187,10.92-227.83,10.92-227.83H2987.53c2.47,52.86,5.08,108.14,7,147.56,9.07,190.64,10.74,218.56,7,257.25-4,40.84-13.07,81.78-10.43,126.14a49.36,49.36,0,0,1-1,16c-5.2,21.43-23.91,29.39-70.54,62.32-17.95,12.67-26.93,19-32.79,24.43-16.68,15.42-22.61,26.42-42.72,40.88-9.39,6.74-16.63,10.47-25.34,12-7.59,1.3-9.78-.21-19.38,1C2790.3,692.79,2775.11,694.7,2772.91,701.64Z"/></g></g></g></svg>