<svg xmlns="http://www.w3.org/2000/svg" viewBox="0 0 37.76 35.56"><defs><style>.cls-1{fill:#010101;}</style></defs><title>web-bg-tech</title><g id="Layer_2" data-name="Layer 2"><g id="Layer_1-2" data-name="Layer 1"><path class="cls-1" d="M36.21,17.37a1.64,1.64,0,1,0-1.52-2H25.58a7.14,7.14,0,0,0-.94-2.46h6.93a1.56,1.56,0,0,0,1.9,1.18,1.64,1.64,0,0,0,1.12-2,1.55,1.55,0,0,0-1.9-1.18,1.61,1.61,0,0,0-1.12,1.18H24.06l-.12-.17V3.67h5.49a1.56,1.56,0,0,0,1.89,1.2,1.65,1.65,0,0,0,1.14-2,1.57,1.57,0,0,0-1.88-1.2,1.61,1.61,0,0,0-1.15,1.2H23.55a.41.41,0,0,0-.39.41v7.9A6.28,6.28,0,0,0,20.4,9.93a.56.56,0,0,0,0-.12V6.49a1.65,1.65,0,0,0,1.12-2,1.56,1.56,0,0,0-1.9-1.18,1.64,1.64,0,0,0-1.12,2,1.6,1.6,0,0,0,1.12,1.17V9.81h-.43a6.18,6.18,0,0,0-1.91.28V3.22a1.65,1.65,0,0,0,1.12-2A1.56,1.56,0,0,0,16.54.05a1.66,1.66,0,0,0-1.12,2,1.6,1.6,0,0,0,1.12,1.17v7a.46.46,0,0,0,0,.21,6.49,6.49,0,0,0-2.38,1.92V6.49a1.63,1.63,0,0,0,1.12-2,1.55,1.55,0,0,0-1.89-1.18,1.64,1.64,0,0,0-1.12,2,1.6,1.6,0,0,0,1.12,1.17v6.18H4.27V6.94h0A1.65,1.65,0,0,0,5.42,5a1.57,1.57,0,0,0-1.89-1.2,1.65,1.65,0,0,0-1.14,2,1.6,1.6,0,0,0,1.14,1.2h0v6.14a.41.41,0,0,0,.39.41h9.55l-.16.37a5.2,5.2,0,0,0-4.25,2.53H6.18a1.55,1.55,0,0,0-1.9-1.17,1.63,1.63,0,0,0-1.11,2,1.54,1.54,0,0,0,1.89,1.17,1.57,1.57,0,0,0,1.12-1.17H8.67a5.75,5.75,0,0,0-.42,2.21v.24H3.07a1.56,1.56,0,0,0-1.9-1.17,1.64,1.64,0,0,0-1.12,2A1.55,1.55,0,0,0,2,21.66a1.61,1.61,0,0,0,1.12-1.18H8.29a5.53,5.53,0,0,0,1.09,2.46H6.18a1.55,1.55,0,0,0-1.9-1.18,1.64,1.64,0,0,0-1.11,2,1.55,1.55,0,0,0,1.89,1.18,1.6,1.6,0,0,0,1.12-1.18h4A5.11,5.11,0,0,0,13.47,25h0v6.14H7.93a1.54,1.54,0,0,0-1.88-1.2,1.63,1.63,0,0,0-1.14,2,1.54,1.54,0,0,0,3,0h5.89a.39.39,0,0,0,.38-.41V24.94h2.73v4.13a1.65,1.65,0,0,0-1.12,2,1.56,1.56,0,0,0,1.9,1.18,1.65,1.65,0,0,0,1.12-2,1.6,1.6,0,0,0-1.12-1.18V24.94h2.34v7.4a1.64,1.64,0,0,0-1.12,2,1.55,1.55,0,0,0,1.9,1.17,1.63,1.63,0,0,0,1.11-2,1.6,1.6,0,0,0-1.11-1.18v-7.4h2.33v4.13a1.65,1.65,0,0,0-1.12,2,1.56,1.56,0,0,0,1.9,1.18,1.64,1.64,0,0,0,1.12-2,1.6,1.6,0,0,0-1.12-1.18V24.94h1.4a4.13,4.13,0,0,0,3.39-1.84h5.53v5.73h0a1.63,1.63,0,0,0-1.14,2A1.55,1.55,0,0,0,35,32a1.64,1.64,0,0,0,1.15-2A1.58,1.58,0,0,0,35,28.83h0V22.69a.4.4,0,0,0-.39-.41H29.16a4.6,4.6,0,0,0,.23-2.86h2.18a1.56,1.56,0,0,0,1.9,1.17,1.63,1.63,0,0,0,1.12-2,1.55,1.55,0,0,0-1.9-1.18,1.61,1.61,0,0,0-1.12,1.18H29.16a4.26,4.26,0,0,0-3-2.45h8.49A1.57,1.57,0,0,0,36.21,17.37Zm-3.12-5.72a.82.82,0,1,1-.78.81A.79.79,0,0,1,33.09,11.65ZM31,2.44a.8.8,0,0,1,.78.82.78.78,0,1,1-1.56,0A.8.8,0,0,1,31,2.44ZM19.27,4.9a.78.78,0,1,1,.78.82A.8.8,0,0,1,19.27,4.9ZM16.15,1.63a.78.78,0,1,1,1.56,0,.78.78,0,1,1-1.56,0Zm-13,3.68a.79.79,0,0,1,.77-.82.82.82,0,0,1,0,1.63A.79.79,0,0,1,3.11,5.31ZM4.66,17.58a.82.82,0,1,1,.78-.82A.8.8,0,0,1,4.66,17.58ZM1.55,20.85a.82.82,0,0,1,0-1.64.82.82,0,0,1,0,1.64ZM6.42,32.3a.82.82,0,0,1,0-1.63.82.82,0,0,1,0,1.63ZM18.1,30.67a.78.78,0,1,1-.78-.82A.79.79,0,0,1,18.1,30.67Zm3.12,3.27a.78.78,0,1,1-.78-.82A.8.8,0,0,1,21.22,33.94Zm3.11-3.27a.78.78,0,1,1-.78-.82A.79.79,0,0,1,24.33,30.67Zm11.1-.21a.78.78,0,1,1-.78-.82A.8.8,0,0,1,35.43,30.46ZM33.09,18.19a.82.82,0,1,1-.78.82A.8.8,0,0,1,33.09,18.19Zm3.12-3.27a.82.82,0,1,1-.78.82A.8.8,0,0,1,36.21,14.92ZM13,4.9a.8.8,0,0,1,.78-.82.79.79,0,0,1,.77.82.79.79,0,0,1-.77.82A.8.8,0,0,1,13,4.9ZM4.66,24.12a.82.82,0,1,1,.78-.82A.8.8,0,0,1,4.66,24.12Zm24.11-3.64a3.55,3.55,0,0,1-3.43,3.6H13.47A4.61,4.61,0,0,1,9,19.36a4.62,4.62,0,0,1,4.5-4.73h0a.39.39,0,0,0,.43-.24,5.64,5.64,0,0,1,7.47-3.3A6,6,0,0,1,25,16.43a.4.4,0,0,0,.39.41A3.56,3.56,0,0,1,28.77,20.48Z"/></g></g></svg>