<svg xmlns="http://www.w3.org/2000/svg" viewBox="0 0 101.85 127.84"><defs><style>.cls-1{fill:#010101;}</style></defs><title>web-bg-effect</title><g id="Layer_2" data-name="Layer 2"><g id="Layer_1-2" data-name="Layer 1"><path class="cls-1" d="M56.37,71.82a3.14,3.14,0,0,0,4.41,2.4,4.4,4.4,0,0,1-4.09,3.28,3.16,3.16,0,0,0-1.37.16c-.41.22-.62.88-.23,1.14l-1.57-1.92q.28,1.09.54,2.19a64.37,64.37,0,0,1,6.46-.92C57.45,81.6,52.08,82,47.66,80.66s-8.29-4-12.46-6-9.09-3.2-13.36-1.44A32.57,32.57,0,0,0,8.05,84.06a9.33,9.33,0,0,0-1.68,3.19,10.86,10.86,0,0,0-.06,3.6Q7.08,98.43,8.07,106c1,7.91,2.58,16.46,8.47,21.83H.05q0-25.64,0-51.28a63.51,63.51,0,0,1,.42-8.94,43.33,43.33,0,0,1,2.36-8.78A67.18,67.18,0,0,1,17.72,35.33c3.71-3.78,7.86-7.12,11.26-11.18s6-9.07,5.92-14.36a18.51,18.51,0,0,1-2,13.42c10.23-5.18,22.3-7.85,33.27-4.48,2.65.82,5.22,2,8,2.36,5.32.76,10.56-1.43,15.48-3.58a22.56,22.56,0,0,1-15.27,5A22.87,22.87,0,0,1,82.81,39.9a1.17,1.17,0,1,1,.07,1.3l-.09,13c0,2,.07,4.29,1.51,5.72A12.44,12.44,0,0,1,87.2,72.5l-9.51-.1c-.59-4.48-.77-10,3-12.48,1.62-1.08,1.77-3.36,1.76-5.3q-.06-6.94-.11-13.89a3.75,3.75,0,0,1-2.88,1.94,2.42,2.42,0,0,1,2.44-2.94c-.4-7.5-5.79-14.18-12.62-17.29s-14.83-2.93-22-.74S33.62,28,27.64,32.5c6-2.71,12.4-4.81,19-4.91s13.37,2,18,6.69a35.2,35.2,0,0,0-50.36,16.5A102.94,102.94,0,0,0,7.19,75.66c3.74-3.83,9.56-4.79,13.84-8,4-3,6.27-7.64,8.26-12.19A19,19,0,0,1,21.07,69.1c7.58-1.57,15,2.6,21.63,6.62a7.16,7.16,0,0,1-4.31-7.63A3.32,3.32,0,0,0,44,69c1.11-1.59,4.17-.79,4.36,1.15a7.21,7.21,0,0,1-3.68,5l-.09,1.5A20.45,20.45,0,0,0,53.4,78.9c-.86-2.63-1.82-5.24-2.85-7.81.24-.35.48-.71.73-1.06,1.55-1.67,4.92-.49,5.09,1.79M83.71,64c-.1-.09-.06-.28-.17-.34a1.77,1.77,0,0,0-2.26.34,1.75,1.75,0,0,0,.14,2.27,1.69,1.69,0,0,0,2.26,0,1.66,1.66,0,0,0,0-2.25m-3-22.23L82,40.24c-.16-.21-.5-.15-.75,0A2.55,2.55,0,0,0,79.83,42a.4.4,0,0,0,.49.08,1.21,1.21,0,0,0,.39-.36m3.66-.71a.37.37,0,0,0,.19-.11c.1-.12,0-.3-.07-.42A1.8,1.8,0,0,0,83,40.11a1.21,1.21,0,0,0,1.42.94M43.19,75.22a.91.91,0,0,0,.15,1,1,1,0,0,0,.94.3.83.83,0,0,1,0-1.26,1,1,0,0,0-1.06,0m42-7.81a4.89,4.89,0,0,0,0-2.12,4.6,4.6,0,0,0,0,2.12m-1.9-6.3a1.53,1.53,0,0,0,0-1.41,3.93,3.93,0,0,0,0,1.41"/><path class="cls-1" d="M27.75,55.54a.84.84,0,0,1-.46-.27,6.16,6.16,0,0,1-2.16-4.33,7.82,7.82,0,0,1,.21-1.33c.19-.92.38-1.85.58-2.78a.28.28,0,0,1,.06-.15c.11-.14.32,0,.46.08a7.93,7.93,0,0,1,2.72,3.86,5.08,5.08,0,0,1-.77,4.55.79.79,0,0,1-.64.37"/><path class="cls-1" d="M60.56,79.8a1,1,0,0,1,.41-.25,5.72,5.72,0,0,1,2.1-.21,9.42,9.42,0,0,1,2.6.34,3.43,3.43,0,0,1,2,1.53,5.22,5.22,0,0,1,.21,3.32.35.35,0,0,1-.14.3.33.33,0,0,1-.17,0,8.6,8.6,0,0,1-4.54-.73,4.78,4.78,0,0,1-2.67-3.59,1,1,0,0,1,.15-.75"/><path class="cls-1" d="M86.45,28.66c1.65.55,2.75,2.43,4.48,2.49-.07.35-.52.47-.87.54-1.23.27-2.36.89-3.57,1.25a4,4,0,0,1-3.6-.4,3.84,3.84,0,0,1-.84-1,8.2,8.2,0,0,1-.6-1.27.3.3,0,0,1,0-.26.4.4,0,0,1,.18-.16,12.89,12.89,0,0,1,2.32-1.09,4.06,4.06,0,0,1,2.53-.06"/><path class="cls-1" d="M31,20.06a2.81,2.81,0,0,1-2.31-1.68,5.19,5.19,0,0,1-.59-2.76,11.46,11.46,0,0,1,.18-1.31L29,10.67c0-.12.1-.29.23-.28a.25.25,0,0,1,.17.1l1.72,1.76a6.59,6.59,0,0,1,1.65,2.24c.6,1.63-.14,3.43-.9,5a1.39,1.39,0,0,1-.25.38.86.86,0,0,1-.58.18"/><path class="cls-1" d="M80.32,19.81a1.85,1.85,0,0,1-.8-.94c-.58-1.36,0-2.94.88-4.14a20.56,20.56,0,0,0,2.51-3.62,1.77,1.77,0,0,1,.58-.93,12,12,0,0,0,1.08,4,5.38,5.38,0,0,1,.21,4A3.07,3.07,0,0,1,83,19.78a5.69,5.69,0,0,1-1.22.22,2.64,2.64,0,0,1-1.42-.19"/><path class="cls-1" d="M42.52,15.49a7,7,0,0,1-.92,1.41,4.53,4.53,0,0,1-5.44.89.72.72,0,0,1-.3-.27.88.88,0,0,1-.09-.42,7.89,7.89,0,0,1,.34-2.82,3.25,3.25,0,0,1,1.89-2,5.93,5.93,0,0,1,1.57-.2,16.28,16.28,0,0,0,4.83-1,36.37,36.37,0,0,1-1.88,4.4"/><path class="cls-1" d="M33.92,10.08a.84.84,0,0,1-.72-.1,6.67,6.67,0,0,1-3.59-6.25A11.52,11.52,0,0,1,30.53.28c0-.13.12-.27.25-.28A.35.35,0,0,1,31,.1,14.7,14.7,0,0,1,33.88,3a6.64,6.64,0,0,1,1.31,3.81,5.22,5.22,0,0,1-1,3,.92.92,0,0,1-.29.27"/><path class="cls-1" d="M87.18,16.85a1,1,0,0,1-.66-.47,5.22,5.22,0,0,1-.11-5.32A14.36,14.36,0,0,1,90.14,6.9a.61.61,0,0,1,.47-.2c.21,0,.31.25.38.45a8,8,0,0,1-3.13,9.46,1,1,0,0,1-.68.24"/><path class="cls-1" d="M61.55,87.63c-.77,1.43-2.64,2.15-3,3.72,0,.18-.32.24-.49.17a1,1,0,0,1-.39-.43c-1-1.62-2-3.42-1.84-5.32a6.37,6.37,0,0,1,2.77-4.2,1.09,1.09,0,0,1,.92-.29,1,1,0,0,1,.49.42,10.2,10.2,0,0,1,1.69,2.76,4,4,0,0,1-.1,3.17"/><path class="cls-1" d="M49,37.43c-.77-2.37.42-4.92.29-7.41a4.72,4.72,0,0,1,3.82,2.41A5.67,5.67,0,0,1,53.45,37c-.25.74-.64,1.42-.89,2.15a3.24,3.24,0,0,0-.08,2.29c-.29.07-.55-.15-.76-.36A9.63,9.63,0,0,1,49,37.43"/><path class="cls-1" d="M61.27,30a3.17,3.17,0,0,0-.36-1.06A2.51,2.51,0,0,1,61,26.8a3.44,3.44,0,0,1,3.54-1.47A10.25,10.25,0,0,1,68.28,27l2.57,1.59c.26.16.55.38.5.68a15.29,15.29,0,0,0-4.26,1.48,10.69,10.69,0,0,1-1.63.8,4.17,4.17,0,0,1-2.83,0A1.82,1.82,0,0,1,61.27,30"/><path class="cls-1" d="M93.65,28.7c-.39,0-.66-.4-1-.66-1.28-1.19-3.36-.81-4.9-1.64a4.07,4.07,0,0,1-2-3.72,2.06,2.06,0,0,1,.66-1.6c.21-.14.47-.23.69-.35.4-.19.74-.45,1.12-.65a3.82,3.82,0,0,1,3.83.3,4.41,4.41,0,0,1,1.78,3.47c0,1.64-.79,3.3-.28,4.85"/><path class="cls-1" d="M57,15.69a3.17,3.17,0,0,0-.81.34,1.64,1.64,0,0,1-1.72-.55,3.26,3.26,0,0,1-.44-3.3,8.6,8.6,0,0,1,2-2.84,13,13,0,0,0,2.22-2.7c.17-.32.37-.7.74-.73-.28,3,1.86,6,1.11,8.9-.19.77-.8,1.61-1.57,1.47-.55-.1-1-.66-1.52-.59"/><path class="cls-1" d="M58.65,43.47l-1.56-2a7.9,7.9,0,0,1-1.38-2.27,5.46,5.46,0,0,1,.16-3.65,14.44,14.44,0,0,1,1.85-3.23s.07-.09.12-.1.17,0,.24.1l1.13,1.08a7.84,7.84,0,0,1,2.11,2.7,5.31,5.31,0,0,1-.28,4,14.4,14.4,0,0,1-2.39,3.38"/><path class="cls-1" d="M80.13,35.43a5.19,5.19,0,0,1-1.26,4.17c-1,1.27-2.34,2.39-2.68,4,0,.25-.11.56-.35.64a17.63,17.63,0,0,1-1.29-6.29,6,6,0,0,1,3.09-5.29,1.14,1.14,0,0,1,.54-.14c.37,0,.62.37.83.68a7.3,7.3,0,0,1,1.12,2.25"/><path class="cls-1" d="M40.21,3.93a10.6,10.6,0,0,1,2.44-.38l2.78-.25L42.74,8.72a8.2,8.2,0,0,1-.89,1.51,4.22,4.22,0,0,1-3.61,1.57,2.44,2.44,0,0,1-.89-.23A2.46,2.46,0,0,1,36.3,9.33a5.76,5.76,0,0,1,3.91-5.4"/><path class="cls-1" d="M30.31,61.9a2.24,2.24,0,0,1-1-.43.87.87,0,0,1-.26-1c.54-1,.21-2.28.65-3.31.57-1.33,2.22-1.83,3.66-1.91s3,0,4.25-.72c.24-.14.55.07.64.32a1.42,1.42,0,0,1-.08.81,15,15,0,0,1-1.43,3.52A6,6,0,0,1,34,61.69a6.39,6.39,0,0,1-3.65.21m.35-1.56c.06-.08-.11-.17-.19-.1a2.4,2.4,0,0,0,.08,1,1.2,1.2,0,0,0,.1-.85"/><path class="cls-1" d="M90.68,17.34a.94.94,0,0,1,0-.44,5,5,0,0,1,1.94-2.74,7.73,7.73,0,0,1,4.49-1.08c1.56,0,3.13.22,4.7.08.08.28-.2.55-.43.76a8.47,8.47,0,0,0-1.51,2.73,6.34,6.34,0,0,1-2.08,2.6,3.91,3.91,0,0,1-3.2.62,6.26,6.26,0,0,1-1.74-.9l-1.77-1.18a.86.86,0,0,1-.43-.45"/><path class="cls-1" d="M22.07,61c-.85-1-.75-2.48-.6-3.79.05-.44.09-.86.14-1.29a6.14,6.14,0,0,0,0-1.35,7.22,7.22,0,0,1-.26-1.69c0-.16.27-.18.38-.09a.91.91,0,0,1,.18.44c.36,1.41,1.86,2.12,2.95,3.09a4.54,4.54,0,0,1,1.35,2A2.9,2.9,0,0,1,26,60.7a2.45,2.45,0,0,1-4,.32m1.54-.81a9.19,9.19,0,0,0,0-2.72,6.73,6.73,0,0,0,0,2.72m1.91-1.36c0-.2.06-.46-.12-.54a1.22,1.22,0,0,0,.09,1,.81.81,0,0,0,.05-.44"/><path class="cls-1" d="M70.77,47.49c-.59-.36-1.17-.72-1.74-1.09a13.15,13.15,0,0,1-2.44-1.8C64.45,42.41,64.12,39,64.49,36c.07-.52.3-1.18.83-1.18a6,6,0,0,1,5.92,6.76,30.29,30.29,0,0,1-.74,3,4.05,4.05,0,0,0,.27,3"/><path class="cls-1" d="M61.15,16.7a.79.79,0,0,1-.23-.42,6.92,6.92,0,0,1,2.34-7c2.15-1.71,5.09-1.95,7.56-3.17.16-.08.26.2.23.39a21.74,21.74,0,0,1-1.42,5.86,7.47,7.47,0,0,1-4.13,4.18,9.32,9.32,0,0,1-4,.29.72.72,0,0,1-.38-.1"/></g></g></svg>